<?xml version="1.0" encoding="utf-8"?>
<!-- Generator: Adobe Illustrator 19.1.0, SVG Export Plug-In . SVG Version: 6.00 Build 0)  -->
<svg version="1.1" xmlns="http://www.w3.org/2000/svg" xmlns:xlink="http://www.w3.org/1999/xlink" x="0px" y="0px"
	 viewBox="0 0 238.6 195.3" style="enable-background:new 0 0 238.6 195.3;" xml:space="preserve">
<style type="text/css">
	.st0{fill:#FFFFFF;}
	.st1{clip-path:url(#SVGID_2_);}
	.st2{fill:#EF62D5;}
	.st3{fill:#FFEF7D;}
	.st4{fill:#FF9700;}
	.st5{clip-path:url(#SVGID_4_);}
	.st6{clip-path:url(#SVGID_6_);}
	.st7{opacity:0.24;}
	.st8{fill:url(#SVGID_7_);}
	.st9{fill:#BFBFBF;}
	.st10{fill:#A8A8A8;}
	.st11{fill:#6B5436;}
	.st12{fill:#A08C73;}
	.st13{fill:#4F3C29;}
</style>
<g id="Layer_1">
	<g>
		<g>
			<path class="st0" d="M73.6,20h-0.8v-2.4c0-0.1-0.1-0.2-0.2-0.2h-1.3c-0.1,0-0.2,0.1-0.2,0.2V20h-0.8c-1.3,0-2.3,1-2.3,2.3v29.9
				c0,1.3,1,2.3,2.3,2.3h3.3c1.3,0,2.3-1,2.3-2.3V22.3C75.9,21.1,74.9,20,73.6,20z"/>
			<g>
				<defs>
					<path id="SVGID_1_" d="M73.6,20h-0.8v-2.4c0-0.1-0.1-0.2-0.2-0.2h-1.3c-0.1,0-0.2,0.1-0.2,0.2V20h-0.8c-1.3,0-2.3,1-2.3,2.3
						v29.9c0,1.3,1,2.3,2.3,2.3h3.3c1.3,0,2.3-1,2.3-2.3V22.3C75.9,21.1,74.9,20,73.6,20z"/>
				</defs>
				<clipPath id="SVGID_2_">
					<use xlink:href="#SVGID_1_"  style="overflow:visible;"/>
				</clipPath>
				<g class="st1">
					
						<rect x="53.5" y="44.6" transform="matrix(-0.7071 -0.7071 0.7071 -0.7071 87.9189 126.9853)" class="st2" width="33.4" height="1.4"/>
					
						<rect x="53.5" y="33.9" transform="matrix(-0.7071 -0.7071 0.7071 -0.7071 95.4486 108.807)" class="st2" width="33.4" height="1.4"/>
					
						<rect x="53.5" y="23.3" transform="matrix(0.7071 0.7071 -0.7071 0.7071 37.5396 -42.655)" class="st2" width="33.4" height="1.4"/>
				</g>
			</g>
		</g>
		<path class="st3" d="M76.5,10.9c0,3.1-2,5.6-4.5,5.6s-4.5-2.5-4.5-5.6c0-2.8,3.5-9.4,4.3-10.8C72,0,72.2,0,72.2,0.1
			C73,1.5,76.5,8.2,76.5,10.9z"/>
		<path class="st4" d="M73.8,13.8C73.8,15,73,16,72,16c-1,0-1.7-1-1.7-2.2c0-1.1,1.4-3.7,1.7-4.2c0-0.1,0.1-0.1,0.1,0
			C72.4,10.1,73.8,12.7,73.8,13.8z"/>
		<g>
			<path class="st0" d="M120.9,20H120v-2.4c0-0.1-0.1-0.2-0.2-0.2h-1.3c-0.1,0-0.2,0.1-0.2,0.2V20h-0.8c-1.3,0-2.3,1-2.3,2.3v29.9
				c0,1.3,1,2.3,2.3,2.3h3.3c1.3,0,2.3-1,2.3-2.3V22.3C123.1,21.1,122.1,20,120.9,20z"/>
			<g>
				<defs>
					<path id="SVGID_3_" d="M120.9,20H120v-2.4c0-0.1-0.1-0.2-0.2-0.2h-1.3c-0.1,0-0.2,0.1-0.2,0.2V20h-0.8c-1.3,0-2.3,1-2.3,2.3
						v29.9c0,1.3,1,2.3,2.3,2.3h3.3c1.3,0,2.3-1,2.3-2.3V22.3C123.1,21.1,122.1,20,120.9,20z"/>
				</defs>
				<clipPath id="SVGID_4_">
					<use xlink:href="#SVGID_3_"  style="overflow:visible;"/>
				</clipPath>
				<g class="st5">
					
						<rect x="100.8" y="44.6" transform="matrix(-0.7071 -0.7071 0.7071 -0.7071 168.585 160.3983)" class="st2" width="33.4" height="1.4"/>
					
						<rect x="100.8" y="33.9" transform="matrix(-0.7071 -0.7071 0.7071 -0.7071 176.1147 142.22)" class="st2" width="33.4" height="1.4"/>
					
						<rect x="100.8" y="23.3" transform="matrix(0.7071 0.7071 -0.7071 0.7071 51.3798 -76.068)" class="st2" width="33.4" height="1.4"/>
				</g>
			</g>
		</g>
		<path class="st3" d="M123.8,10.9c0,3.1-2,5.6-4.5,5.6c-2.5,0-4.5-2.5-4.5-5.6c0-2.8,3.5-9.4,4.3-10.8c0.1-0.1,0.2-0.1,0.3,0
			C120.3,1.5,123.8,8.2,123.8,10.9z"/>
		<path class="st4" d="M121,13.8c0,1.2-0.8,2.2-1.7,2.2c-1,0-1.7-1-1.7-2.2c0-1.1,1.4-3.7,1.7-4.2c0-0.1,0.1-0.1,0.1,0
			C119.6,10.1,121,12.7,121,13.8z"/>
		<g>
			<path class="st0" d="M168.1,20h-0.8v-2.4c0-0.1-0.1-0.2-0.2-0.2h-1.3c-0.1,0-0.2,0.1-0.2,0.2V20h-0.8c-1.3,0-2.3,1-2.3,2.3v29.9
				c0,1.3,1,2.3,2.3,2.3h3.3c1.3,0,2.3-1,2.3-2.3V22.3C170.4,21.1,169.4,20,168.1,20z"/>
			<g>
				<defs>
					<path id="SVGID_5_" d="M168.1,20h-0.8v-2.4c0-0.1-0.1-0.2-0.2-0.2h-1.3c-0.1,0-0.2,0.1-0.2,0.2V20h-0.8c-1.3,0-2.3,1-2.3,2.3
						v29.9c0,1.3,1,2.3,2.3,2.3h3.3c1.3,0,2.3-1,2.3-2.3V22.3C170.4,21.1,169.4,20,168.1,20z"/>
				</defs>
				<clipPath id="SVGID_6_">
					<use xlink:href="#SVGID_5_"  style="overflow:visible;"/>
				</clipPath>
				<g class="st6">
					
						<rect x="148" y="44.6" transform="matrix(-0.7071 -0.7071 0.7071 -0.7071 249.2512 193.8113)" class="st2" width="33.4" height="1.4"/>
					
						<rect x="148" y="33.9" transform="matrix(-0.7071 -0.7071 0.7071 -0.7071 256.7809 175.633)" class="st2" width="33.4" height="1.4"/>
					
						<rect x="148" y="23.3" transform="matrix(0.7071 0.7071 -0.7071 0.7071 65.2199 -109.481)" class="st2" width="33.4" height="1.4"/>
				</g>
			</g>
		</g>
		<path class="st3" d="M171,10.9c0,3.1-2,5.6-4.5,5.6s-4.5-2.5-4.5-5.6c0-2.8,3.5-9.4,4.3-10.8c0.1-0.1,0.2-0.1,0.3,0
			C167.5,1.5,171,8.2,171,10.9z"/>
		<path class="st4" d="M168.3,13.8c0,1.2-0.8,2.2-1.7,2.2c-1,0-1.7-1-1.7-2.2c0-1.1,1.4-3.7,1.7-4.2c0-0.1,0.1-0.1,0.1,0
			C166.9,10.1,168.3,12.7,168.3,13.8z"/>
	</g>
	<ellipse class="st7" cx="119.3" cy="186.2" rx="119.3" ry="9.1"/>
	<linearGradient id="SVGID_7_" gradientUnits="userSpaceOnUse" x1="119.3276" y1="53.4219" x2="119.3276" y2="188.0255">
		<stop  offset="0" style="stop-color:#FCECAD"/>
		<stop  offset="1" style="stop-color:#FCECAD"/>
	</linearGradient>
	<path class="st8" d="M214.8,116.4v-53c0-5.4-3.7-9.9-8.1-9.9H32c-4.5,0-8.1,4.5-8.1,9.9v52.3c-4.3,0.3-7.8,5.4-7.8,10.7v51.9
		c0,5.4,3.7,9.9,8.1,9.9h190.3c4.5,0,8.1-4.5,8.1-9.9v-51.9C222.6,121,219.1,116.6,214.8,116.4z"/>
	<path class="st9" d="M223.2,178.7H15.5c-2.6,0-4.7,2.1-4.7,4.7l0,0c0,2.6,2.1,4.7,4.7,4.7h207.6c2.6,0,4.7-2.1,4.7-4.7l0,0
		C227.8,180.8,225.7,178.7,223.2,178.7z"/>
	<rect x="9.6" y="178.4" class="st10" width="219.4" height="5.9"/>
</g>
<g id="Layer_3">
	<path class="st11" d="M215.4,63c0-5.6-2.8-10.3-7.3-10.3H32.8c-4.5,0-9.5,4.7-9.5,10.3v11.8c2-0.7,3.4-1.7,4.6-2.9
		c1.4-1.5,3.8-1.5,5.2,0c2.4,2.5,5.6,4,8.9,4c3.3,0,6.4-1.5,8.8-4c1.4-1.5,3.5-1.5,4.9,0c2.4,2.5,5.5,4,8.8,4c3.3,0,6.4-1.5,8.8-4
		c1.4-1.5,3.5-1.5,4.9,0c2.4,2.5,5.4,4,8.8,4c3.3,0,6.4-1.5,8.8-4c1.4-1.5,3.5-1.5,4.9,0c2.4,2.5,5.4,4,8.8,4c3.3,0,6.4-1.5,8.8-4
		c1.4-1.5,3.5-1.5,4.9,0c2.4,2.5,5.4,4,8.8,4s6.4-1.5,8.8-4c1.4-1.5,3.5-1.5,4.9,0c2.4,2.5,5.4,4,8.8,4c3.3,0,6.4-1.5,8.8-4
		c1.4-1.5,3.5-1.5,4.9,0c2.4,2.5,5.4,4,8.8,4s6.4-1.5,8.8-4c1.4-1.5,3.5-1.5,4.9,0c2.4,2.5,5.4,4,8.8,4s6.4-1.5,8.8-4
		c1.4-1.5,3-1.5,4.4,0c1.2,1.2,3.5,2.2,3.5,2.9V63z"/>
	<rect x="23.6" y="62" class="st12" width="191.8" height="2.7"/>
	<path class="st13" d="M21.5,115.6c-4.1,0.3-7.2,5.4-7.2,10.7v13.9c1,0.7,2.5,1.1,3.9,1.1c3.6,0,6.8-2.4,9.3-6.4
		c1.1-1.8,2.9-1.8,4,0c2.5,4,5.8,6.4,9.3,6.4c3.6,0,6.8-2.4,9.3-6.4c1.1-1.8,2.9-1.8,4.1,0c2.5,4,5.8,6.4,9.4,6.4
		c3.6,0,6.9-2.4,9.4-6.4c1.1-1.8,2.9-1.8,4.1,0c2.5,4,5.8,6.4,9.4,6.4c3.6,0,6.9-2.4,9.4-6.4c1.1-1.8,2.9-1.8,4.1,0
		c2.5,4,5.8,6.4,9.4,6.4c3.6,0,6.9-2.4,9.4-6.4c1.1-1.8,2.9-1.8,4.1,0c2.5,4,5.8,6.4,9.4,6.4c3.6,0,6.9-2.4,9.4-6.4
		c1.1-1.8,2.9-1.8,4.1,0c2.5,4,5.8,6.4,9.4,6.4s6.9-2.4,9.4-6.4c1.1-1.8,2.9-1.8,4.1,0c2.5,4,5.8,6.4,9.4,6.4c3.6,0,6.9-2.4,9.4-6.4
		c1.1-1.8,2.9-1.8,4.1,0c2.5,4,5.8,6.4,9.4,6.4c3.6,0,6.9-2.4,9.4-6.4c1.1-1.8,2.9-1.8,4.1,0c2.5,4,5,6.4,8.6,6.4
		c0.7,0,1.9-0.2,1.9-0.7v-14.7c0-4.9-2.7-9.2-7.8-9.4L21.5,115.6z"/>
</g>
<g id="Layer_4">
</g>
</svg>
