<?xml version="1.0" encoding="utf-8"?>
<!-- Generator: Adobe Illustrator 19.1.0, SVG Export Plug-In . SVG Version: 6.00 Build 0)  -->
<svg version="1.1" id="Layer_1" xmlns="http://www.w3.org/2000/svg" xmlns:xlink="http://www.w3.org/1999/xlink" x="0px" y="0px"
	 viewBox="0 0 247.6 168.5" style="enable-background:new 0 0 247.6 168.5;" xml:space="preserve">
<style type="text/css">
	.st0{fill:#C5FE9A;}
	.st1{fill:#09F6FF;}
	.st2{fill:#FFF600;}
	.st3{fill:#FFFFFF;}
	.st4{fill:#FFFFFD;}
	.st5{fill:#FFBB63;}
	.st6{fill:#FFDF49;}
</style>
<g>
	<path class="st0" d="M84.9,66.9c-0.2,1.4-1,2.9-2.3,4.4c-1.2,1.4-2.4,2.4-3.9,3.1c-1.9,0.9-3.6,1.4-5.1,1.4c-2.5,0-4.5-0.8-6.1-2.4
		c-1.6-1.6-2.3-3.6-2.3-6c0-3.4,1.3-6.2,3.9-8.4c2.5-2,5.4-3.1,8.9-3.1c0.6,0,1.3,0,1.9,0.1c0.4-1.3,0.6-2.4,0.6-3.3
		c0-2.2-0.9-3.3-2.8-3.3c-0.8,0-1.5,0.3-2.2,0.8c-0.7,0.5-1.2,1.1-1.5,1.9c-0.1,0.4-0.3,0.9-0.5,1.6c-0.6,1-1.7,1.5-3.3,1.5
		c-1.9,0-2.8-0.7-2.8-2.1c0-1.3,0.4-2.7,1.3-4.1c0.8-1.2,1.7-2.3,2.8-3.3c2.2-1.8,4.6-2.8,7.2-2.8c0.6,0,1.4,0.1,2.2,0.2
		c1.7,0.3,3.1,1.3,4.4,2.9c1.3,1.6,1.9,3.3,1.9,5c0,0.2,0,0.5-0.1,0.7L84.9,66.9z M78.5,66.6l0.6-4h-4c-0.6,0-1.3,0.4-2,1.2
		c-0.7,0.8-1.1,1.5-1.2,2.1c-0.2,0.9,0.1,1.7,0.6,2.3c0.6,0.7,1.3,1,2.2,1c0.7,0,1.4-0.3,2.3-0.8C77.9,67.8,78.4,67.2,78.5,66.6z"/>
	<path class="st0" d="M120.3,66.9c-0.2,1.4-1,2.9-2.3,4.4c-1.2,1.4-2.4,2.4-3.9,3.1c-1.9,0.9-3.6,1.4-5.1,1.4
		c-2.3,0-4.4-0.9-6.2-2.6c-2.3,1.7-4.6,2.6-7,2.6c-2.7,0-4.9-1.1-6.6-3.2c-1.3-1.6-1.9-3.3-1.9-4.9c0-0.3,0-0.6,0-0.8l3.5-22
		c0.1-0.5,0.6-1,1.5-1.5c0.7-0.4,1.4-0.6,2.1-0.6c0.5,0,1.1,0.2,1.8,0.5c0.9,0.4,1.2,0.9,1.1,1.5L94,66.6c-0.1,0.6,0.2,1.2,0.7,1.7
		c0.6,0.6,1.3,0.9,2.2,0.9c0.7,0,1.4-0.3,2.3-0.8c0.9-0.6,1.4-1.2,1.4-1.8l3.4-21.7c0.1-0.5,0.6-1,1.5-1.5c0.8-0.4,1.5-0.6,2.1-0.6
		c0.6,0,1.2,0.2,1.9,0.5c0.8,0.4,1.1,0.9,1.1,1.5l-3.5,21.8c-0.1,0.6,0.2,1.2,0.7,1.7c0.6,0.6,1.3,0.9,2.2,0.9
		c0.7,0,1.5-0.3,2.3-0.8c0.9-0.6,1.4-1.2,1.5-1.8l3.4-21.7c0.1-0.5,0.6-1,1.5-1.5c0.8-0.4,1.5-0.6,2.1-0.6c0.6,0,1.2,0.2,1.9,0.5
		c0.8,0.4,1.1,0.9,1.1,1.5L120.3,66.9z"/>
	<path class="st0" d="M138.5,73.1c-2.3,1.7-4.6,2.6-7,2.6c-2.7,0-4.9-1.1-6.6-3.2c-1.3-1.6-1.9-3.3-1.9-4.9c0-0.3,0-0.6,0-0.8
		l2.4-15.2c0.2-1.4,1-2.9,2.3-4.4c1.2-1.3,2.5-2.4,3.9-3.1c1.9-0.9,3.5-1.4,5-1.4c2.5,0,4.5,0.8,6.1,2.4c1.6,1.6,2.3,3.6,2.3,6
		c0,3.4-1.3,6.2-4,8.4c-2.5,2-5.5,3-9,3c-0.6,0-1.2,0-1.7,0c-0.3,1.3-0.5,2.4-0.5,3.3c0,2.1,0.9,3.2,2.8,3.2c1.7,0,2.9-0.9,3.7-2.7
		c0.1-0.4,0.2-0.9,0.5-1.6c0.6-1,1.7-1.5,3.3-1.5c1.9,0,2.8,0.7,2.8,2.1c0,1.3-0.5,2.8-1.4,4.2C140.6,71.1,139.7,72.2,138.5,73.1z
		 M138.4,52.7c0.2-0.9-0.1-1.7-0.6-2.3c-0.6-0.7-1.3-1-2.2-1c-0.7,0-1.5,0.3-2.3,0.8c-0.9,0.6-1.3,1.2-1.4,1.8l-0.6,4h4
		c0.6,0,1.2-0.4,1.9-1.2C137.9,54,138.3,53.3,138.4,52.7z"/>
	<path class="st0" d="M153.4,75.7c-2.3,0-4.3-0.8-6-2.4c-1.7-1.6-2.5-3.5-2.5-5.8c0-0.5,0-0.9,0.1-1.3c0.3-1.8,1.5-2.7,3.7-2.7
		c0.5,0,1.1,0.1,1.7,0.4c0.7,0.3,1.1,0.6,1.1,1.1c0,1.1,0.1,1.7,0.1,1.9c0.1,0.7,0.4,1.2,0.9,1.6c0.6,0.5,1.3,0.8,1.9,0.8
		c0.9,0,1.8-0.3,2.5-1c0.8-0.7,1.2-1.4,1.3-2.4c0.1-0.8,0-1.5-0.4-2.1c-0.4-0.6-1-1-1.7-1.1l-2.4-0.4c-1-0.2-1.9-0.4-2.5-0.7
		c-1.3-0.6-2.4-1.6-3.1-3.2c-0.7-1.3-1-2.8-1-4.4c0-3.1,1.4-5.9,4.1-8.3c2.2-1.9,4.7-2.9,7.4-2.9c2.4,0,4.3,0.8,6,2.3
		c1.6,1.6,2.5,3.5,2.5,5.9c0,0.5,0,0.9-0.1,1.3c-0.3,1.8-1.5,2.7-3.7,2.7c-1.7,0-2.6-0.5-2.8-1.5V52c0-0.7-0.3-1.4-0.9-1.9
		c-0.6-0.5-1.2-0.8-2-0.8c-0.9,0-1.7,0.3-2.5,1s-1.2,1.5-1.4,2.3c-0.1,0.7,0,1.4,0.4,2.1c0.4,0.7,1,1,1.7,1.1l2.8,0.3
		c1.9,0.4,3.5,1.4,4.6,2.9c1.1,1.5,1.7,3.3,1.7,5.3c0,3-1.2,5.6-3.5,7.8C159.1,74.6,156.4,75.7,153.4,75.7z"/>
	<path class="st0" d="M186.7,66.9c-0.2,1.4-1,2.9-2.3,4.4c-1.2,1.4-2.4,2.4-3.9,3.1c-1.9,0.9-3.6,1.4-5.1,1.4
		c-2.7,0-4.9-1.1-6.6-3.2c-1.3-1.6-1.9-3.3-1.9-4.9c0-0.3,0-0.6,0-0.8l2.4-15.2c0.2-1.4,1-2.9,2.3-4.4c1.2-1.3,2.5-2.4,3.9-3.1
		c1.9-0.9,3.5-1.4,5-1.4c0.6,0,1.4,0.1,2.2,0.2c1.7,0.3,3.1,1.3,4.4,2.9c1.3,1.6,1.9,3.3,1.9,5c0,0.2,0,0.5-0.1,0.7L186.7,66.9z
		 M180.3,66.6l2.3-14.6c0.1-0.6-0.2-1.2-0.9-1.7c-0.7-0.6-1.4-0.9-2-0.9c-0.7,0-1.5,0.3-2.3,0.8c-0.9,0.6-1.3,1.2-1.4,1.8l-2.3,14.5
		c-0.1,0.6,0.2,1.2,0.9,1.8s1.4,0.8,2,0.8c0.7,0,1.4-0.3,2.3-0.8C179.7,67.8,180.2,67.2,180.3,66.6z"/>
	<path class="st0" d="M221,73.7c-0.1,0.6-0.6,1.1-1.4,1.5c-0.7,0.3-1.4,0.5-2.1,0.5c-0.7,0-1.4-0.2-2-0.5c-0.7-0.4-1-0.9-1-1.6
		l3.4-21.7c0.1-0.7-0.2-1.3-0.9-1.8c-0.7-0.6-1.4-0.8-2-0.8c-0.6,0-1.4,0.3-2.3,0.8c-0.9,0.6-1.4,1.2-1.5,1.8l-3.4,21.8
		c-0.1,0.6-0.6,1.1-1.4,1.5c-0.7,0.3-1.4,0.5-2.1,0.5c-0.7,0-1.3-0.2-1.9-0.5c-0.8-0.4-1.1-0.9-1-1.5l3.4-21.7
		c0.1-0.7-0.2-1.3-0.8-1.9c-0.7-0.5-1.4-0.8-2.1-0.8c-0.7,0-1.4,0.3-2.3,0.8c-0.9,0.6-1.4,1.2-1.5,1.8l-3.4,21.8
		c-0.1,0.6-0.6,1.1-1.4,1.5c-0.7,0.3-1.4,0.5-2.1,0.5c-0.6,0-1.3-0.2-1.9-0.5c-0.8-0.4-1.1-0.9-1-1.5l3.5-22c0.2-1.4,1-2.9,2.3-4.4
		c1.2-1.3,2.5-2.4,3.9-3.1c1.9-0.9,3.5-1.4,5-1.4c2.6,0,4.6,0.9,6.2,2.6c2.4-1.7,4.7-2.6,7-2.6c0.6,0,1.4,0.1,2.2,0.2
		c1.7,0.3,3.1,1.3,4.4,2.9c1.3,1.6,1.9,3.3,1.9,5c0,0.3,0,0.5,0,0.7L221,73.7z"/>
	<path class="st0" d="M240.2,73.1c-2.3,1.7-4.6,2.6-7,2.6c-2.7,0-4.9-1.1-6.6-3.2c-1.3-1.6-1.9-3.3-1.9-4.9c0-0.3,0-0.6,0-0.8
		l2.4-15.2c0.2-1.4,1-2.9,2.3-4.4c1.2-1.3,2.5-2.4,3.9-3.1c1.9-0.9,3.5-1.4,5-1.4c2.5,0,4.5,0.8,6.1,2.4c1.6,1.6,2.3,3.6,2.3,6
		c0,3.4-1.3,6.2-4,8.4c-2.5,2-5.5,3-9,3c-0.6,0-1.2,0-1.7,0c-0.3,1.3-0.5,2.4-0.5,3.3c0,2.1,0.9,3.2,2.8,3.2c1.7,0,2.9-0.9,3.7-2.7
		c0.1-0.4,0.2-0.9,0.5-1.6c0.6-1,1.7-1.5,3.3-1.5c1.9,0,2.8,0.7,2.8,2.1c0,1.3-0.5,2.8-1.4,4.2C242.4,71.1,241.4,72.2,240.2,73.1z
		 M240.2,52.7c0.2-0.9-0.1-1.7-0.6-2.3s-1.3-1-2.2-1c-0.7,0-1.5,0.3-2.3,0.8c-0.9,0.6-1.3,1.2-1.4,1.8l-0.6,4h4
		c0.6,0,1.2-0.4,1.9-1.2C239.7,54,240.1,53.3,240.2,52.7z"/>
</g>
<g>
	<path class="st1" d="M103.2,15c-0.4-1.1-0.7-1.9-1.1-2.4c-0.2-0.2-0.3-0.4-0.4-0.5c-0.1-0.1-0.1-0.3-0.1-0.4v-0.4
		c0-0.3,0.2-0.5,0.5-0.5H114c1.1,0,1.6,0.4,1.6,1.2c0,1.1-0.5,3.4-1.6,6.8c-1,3.5-2.2,6.9-3.6,10.2c-0.6,1.6-1.2,2.8-1.6,3.4
		c-0.4,0.6-0.9,1-1.4,1.2c-0.5,0.2-1.2,0.3-2.2,0.3H100c-1,0-1.8-0.2-2.4-0.6c-0.6-0.4-1.1-1-1.4-1.9c-0.3,0.8-0.8,1.5-1.5,1.9
		c-0.6,0.4-1.5,0.6-2.5,0.6h-5.3c-1.1,0-1.9-0.2-2.4-0.5c-0.5-0.3-1-1-1.3-1.9l-6-16.7c-0.2-0.5-0.4-0.9-0.7-1.3
		c-0.3-0.3-0.8-0.7-1.4-1.1c-0.3-0.2-0.5-0.4-0.5-0.6v-0.5c0-0.3,0.2-0.5,0.5-0.5h5.7c2.1,0,3.6,0.2,4.6,0.5c1,0.3,1.8,0.9,2.3,1.7
		c0.6,0.8,1.1,1.9,1.6,3.5l4.4,13.1c0.2,0.2,0.3,0.2,0.5,0.2c0.5,0,0.7-0.3,0.7-0.8c0-0.3-0.1-0.8-0.4-1.5L90.4,15
		c-0.4-1.1-0.7-1.9-1.1-2.4c-0.2-0.2-0.3-0.4-0.4-0.5c-0.1-0.1-0.1-0.3-0.1-0.4v-0.4c0-0.3,0.2-0.5,0.5-0.5h4.3
		c2.1,0,3.6,0.2,4.6,0.5c1,0.3,1.8,0.9,2.3,1.7c0.6,0.8,1.1,1.9,1.6,3.5l4.4,13.1c0.2,0.2,0.3,0.2,0.5,0.2c0.5,0,0.7-0.3,0.7-0.8
		c0-0.3-0.1-0.8-0.4-1.5L103.2,15z"/>
	<path class="st1" d="M129.3,10.8c0.6,0,1,0.1,1.2,0.3s0.3,0.6,0.3,1.1V27c0,0.5,0,0.9,0.1,1c0.1,0.2,0.2,0.3,0.5,0.3
		c0.3,0,0.5-0.1,0.6-0.3c0.1-0.2,0.2-0.7,0.3-1.5c0.1-0.5,0.1-0.8,0.2-0.9c0.1-0.1,0.2-0.2,0.4-0.2h0.8c0.2,0,0.3,0.1,0.4,0.3
		c0.1,0.2,0.1,0.6,0.1,1.1c0,2.4-0.6,4.3-1.9,5.6c-1.3,1.3-3.2,1.9-5.6,1.9c-2.3,0-4.1-0.7-5.4-2c-1.3-1.3-1.9-3.2-1.9-5.6V16.4
		c0-1.1-0.2-1.9-0.5-2.4c-0.3-0.6-0.9-1.1-1.7-1.6c-0.2-0.1-0.3-0.2-0.4-0.3c0-0.1-0.1-0.2-0.1-0.3v-0.5c0-0.3,0.2-0.5,0.5-0.5
		H129.3z M118.9,4.5c0-1.4,0.5-2.4,1.6-3.3c1.1-0.8,2.5-1.2,4.3-1.2c1.8,0,3.2,0.4,4.3,1.2c1.1,0.8,1.6,1.9,1.6,3.3
		c0,1.3-0.5,2.4-1.6,3.2c-1.1,0.8-2.5,1.2-4.3,1.2c-1.8,0-3.2-0.4-4.3-1.2C119.4,6.9,118.9,5.8,118.9,4.5z"/>
	<path class="st1" d="M146.4,28.7c0,0.8-0.3,1.4-0.8,2c-0.5,0.5-1.3,0.8-2.2,0.9c-0.1,0.2-0.2,0.3-0.2,0.5c0,0.4,0.3,0.6,0.8,0.6
		c1,0,1.8-0.4,2.6-1.2c0.8-0.8,1.2-1.8,1.2-2.9c0-1.2-0.4-2.2-1.3-2.9c-0.8-0.7-2.3-1.3-4.4-1.8c-4-0.9-5.9-2.8-5.9-5.8
		c0-2.4,1.1-4.2,3.4-5.6c2.3-1.4,5.4-2.1,9.3-2.1c3.2,0,5.7,0.5,7.5,1.5c1.8,1,2.7,2.4,2.7,4.1c0,1.2-0.5,2.2-1.4,2.9
		c-0.9,0.7-2.2,1.1-3.9,1.1c-1.6,0-3-0.3-4-1c-1-0.7-1.5-1.6-1.5-2.7c0-0.8,0.3-1.4,0.8-2c0.5-0.5,1.3-0.8,2.2-0.9
		c0.1-0.2,0.2-0.3,0.2-0.5c0-0.4-0.3-0.6-0.8-0.6c-1,0-1.8,0.4-2.6,1.2c-0.8,0.8-1.2,1.8-1.2,2.9c0,1.2,0.5,2.2,1.4,2.9
		c0.9,0.7,2.5,1.3,4.6,1.8c2.5,0.5,4.4,1.2,5.4,2.2s1.6,2.2,1.6,3.9c0,2.4-1.1,4.2-3.2,5.5c-2.1,1.3-5.2,1.9-9.2,1.9
		c-3.6,0-6.5-0.5-8.7-1.5c-2.2-1-3.2-2.4-3.2-4.1c0-1.2,0.5-2.2,1.4-2.9c1-0.7,2.2-1,3.9-1s3,0.3,4,1
		C145.9,26.6,146.4,27.5,146.4,28.7z"/>
	<path class="st1" d="M162.4,6.8c0-1.1-0.2-1.9-0.5-2.4c-0.3-0.6-0.9-1.1-1.7-1.6c-0.2-0.1-0.3-0.2-0.4-0.3c0-0.1-0.1-0.2-0.1-0.3
		V1.7c0-0.3,0.2-0.5,0.5-0.5h11.7c0.6,0,1,0.1,1.2,0.3s0.3,0.6,0.3,1.1v10.3c1.5-1.8,3.5-2.8,6.2-2.8c2.2,0,3.8,0.7,5,1.9
		c1.1,1.3,1.7,3.1,1.7,5.5v14.6c0,0.5-0.1,0.9-0.3,1.1s-0.6,0.3-1.2,0.3h-8.2c-0.6,0-1-0.1-1.2-0.3s-0.3-0.6-0.3-1.1V16.8
		c0-0.3-0.1-0.6-0.2-0.8c-0.2-0.2-0.4-0.3-0.6-0.3c-0.4,0-0.6,0.1-0.8,0.4v16.4c0,0.5-0.1,0.9-0.3,1.1s-0.6,0.3-1.2,0.3h-8.2
		c-0.6,0-1-0.1-1.2-0.3s-0.3-0.6-0.3-1.1V6.8z"/>
</g>
<g>
	<path class="st2" d="M59,89.2c0-0.9-0.5-1.4-1.4-1.4H55V84h4.6c2.7,0,3.8,1.1,3.8,3.8v16h25v-16c0-2.7,1.1-3.8,3.7-3.8h4.6v3.8H94
		c-0.9,0-1.4,0.4-1.4,1.4v38.3h-4.3v-19.8h-25v19.8H59V89.2z"/>
	<path class="st2" d="M99.9,123.6h0.8c1.1,0,1.8-0.2,2.2-1.4L117.1,84h4.6l14.2,38.3c0.4,1.2,1.1,1.4,2.2,1.4h0.7v3.8h-2
		c-3.1,0-4-0.6-5.1-3.6l-3.8-10.3h-17.2l-3.8,10.3c-1.1,3-2,3.6-5.1,3.6h-2V123.6z M126.9,109.9l-5.7-15.5c-0.7-2-1.7-5.6-1.7-5.6
		h-0.1c0,0-0.9,3.6-1.7,5.6l-5.7,15.5H126.9z"/>
	<path class="st2" d="M146.4,87.8h-4V84h18.4c7.7,0,13.4,5.1,13.4,13.1c0,8.1-5.7,13.3-13.4,13.3h-10v17.1h-4.3V87.8z M160.2,106.6
		c5.7,0,9.5-3.5,9.5-9.5c0-5.9-3.8-9.3-9.5-9.3h-9.5v18.7H160.2z"/>
	<path class="st2" d="M182.2,87.8h-4V84h18.4c7.7,0,13.4,5.1,13.4,13.1c0,8.1-5.7,13.3-13.4,13.3h-10v17.1h-4.3V87.8z M195.9,106.6
		c5.7,0,9.5-3.5,9.5-9.5c0-5.9-3.8-9.3-9.5-9.3h-9.5v18.7H195.9z"/>
	<path class="st2" d="M227.5,108.6l-11.6-19.1c-0.8-1.3-1.6-1.6-2.9-1.6h-1V84h1.7c3,0,4.1,0.4,5.9,3.5l7.4,12.3
		c1.4,2.3,2.7,4.9,2.7,4.9h0.1c0,0,1.3-2.6,2.7-4.9l7.4-12.3c1.9-3,3-3.5,5.9-3.5h1.7v3.8h-1c-1.2,0-2.1,0.3-2.8,1.6l-11.7,19.1
		v18.9h-4.3V108.6z"/>
</g>
<g>
	<path class="st2" d="M1.7,135.6H13c4.3,0,13.2,0.4,13.2,7.2c0,2.4-1.1,4.6-4.3,5.7v0.1c4.1,1.5,5,4.2,5,6.7c0,7.5-8,8.6-13.5,8.6
		H1.7V135.6z M13.8,147c1.5,0,2.2-0.8,2.2-1.8c0-1-0.7-1.8-2.2-1.8h-0.4v3.5H13.8z M13.9,156.3c1.8,0,2.7-1,2.7-2.2
		c0-1.2-0.9-2.2-2.7-2.2h-0.5v4.4H13.9z"/>
	<path class="st2" d="M29.6,135.6h11.6v28.3H29.6V135.6z"/>
	<path class="st2" d="M44.6,135.6h11.6c5.8,0,13.7,1.4,13.7,9c0,3-1.4,5.2-3.6,6.7l6.4,12.6H60.6l-4.2-9.3h-0.2v9.3H44.6V135.6z
		 M57.1,148.1c1.8,0,2.7-1,2.7-2.2c0-1.2-0.9-2.1-2.7-2.1h-0.9v4.3H57.1z"/>
	<path class="st2" d="M79.6,145.2h-7.9v-9.6h27.4v9.6h-7.9v18.7H79.6V145.2z"/>
	<path class="st2" d="M102.1,135.6h11.6v8.7h5.9v-8.7h11.6v28.3h-11.6v-10.3h-5.9v10.3h-11.6V135.6z"/>
	<path class="st2" d="M134.7,163.8v-28.3h11.8c5.5,0,9.7,1.7,12.5,4.4c2.5,2.4,4.1,5.6,4.1,9.7c0,3.9-1.5,7.3-4,9.7
		c-2.9,2.8-7.2,4.5-12.5,4.5H134.7z M146.4,154.6h0.3c2,0,3.4-0.6,4.4-1.6c0.8-0.8,1.3-2,1.3-3.3c0-1.4-0.5-2.6-1.3-3.4
		c-0.8-0.9-2.1-1.5-4.3-1.5h-0.4V154.6z"/>
	<path class="st2" d="M172.6,135.6h11.1l10.8,28.3H182l-1-3.7h-6.5l-1.1,3.7h-11.6L172.6,135.6z M179.1,153l-1.2-5.7h-0.1l-1.2,5.7
		H179.1z"/>
	<path class="st2" d="M198.8,151.9l-10.4-16.3h13.1l3.2,6.4h0.1l3.2-6.4h12.7l-10.3,16v12.3h-11.6V151.9z"/>
</g>
<g>
	<g>
		<path class="st3" d="M28.8,64.3c-0.3,0.4-0.6,0.8-1.1,1.3c-0.5,0.5-1,1-1.5,1.5c-0.6,0.5-1.2,0.9-1.8,1.2
			c-0.6,0.3-1.3,0.5-1.9,0.5c-0.8,0-1.4-0.2-2-0.7c-0.5-0.5-1-1.2-1.3-2.2c-0.3,0.3-0.6,0.7-1,1c-0.4,0.3-0.9,0.6-1.4,0.9
			c-0.5,0.3-1,0.5-1.5,0.7c-0.5,0.2-1.1,0.3-1.6,0.3c-0.6,0-1.1-0.1-1.6-0.3c-0.5-0.2-1-0.6-1.4-1c-0.4-0.4-0.7-1-1-1.6
			c-0.2-0.6-0.4-1.3-0.4-2.1c0-0.9,0.1-1.8,0.4-2.7c0.2-0.9,0.6-1.9,1.2-3s1.1-2,1.7-2.8c0.6-0.8,1.2-1.5,2-2.1
			c0.7-0.6,1.5-1.1,2.2-1.4c0.8-0.3,1.6-0.5,2.4-0.5c0.3,0,0.5,0.1,0.6,0.2c0.2,0.1,0.3,0.2,0.4,0.4c0.1,0.1,0.2,0.3,0.3,0.4
			c0.1,0.1,0.2,0.2,0.4,0.3c0.1,0.1,0.3,0.1,0.4,0.1c0.1,0,0.3,0,0.5,0c0.1,0,0.3,0,0.4,0s0.3,0,0.4,0c0.2,0,0.3,0,0.5,0.1
			c0.2,0,0.3,0.1,0.4,0.2c0.1,0.1,0.2,0.3,0.3,0.5c0.1,0.2,0.1,0.5,0.1,0.9c0,0.6-0.1,1.2-0.2,1.9c-0.1,0.7-0.3,1.4-0.4,2.1
			c-0.2,0.7-0.3,1.5-0.5,2.5c-0.2,0.9-0.3,1.7-0.3,2.3c0,0.5,0,1,0.1,1.3c0.1,0.3,0.3,0.5,0.6,0.5c0.2,0,0.5-0.1,0.8-0.2
			c0.3-0.1,0.5-0.3,0.8-0.5c0.3-0.2,0.6-0.4,0.8-0.7c0.3-0.3,0.5-0.5,0.8-0.8c0.6-0.6,1.2-1.3,1.7-2.1L28.8,64.3z M13.7,62.9
			c0,0.3,0,0.6,0.1,0.9c0,0.3,0.1,0.5,0.2,0.8c0.1,0.2,0.2,0.4,0.4,0.5c0.2,0.1,0.4,0.2,0.7,0.2c0.4,0,0.8-0.2,1.2-0.6
			c0.4-0.4,0.7-0.8,0.9-1.4c0.3-0.5,0.5-1.1,0.6-1.6c0.2-0.6,0.3-1,0.3-1.4l1.3-5.7c-0.5,0-1,0.1-1.4,0.4c-0.5,0.2-0.9,0.6-1.3,1
			c-0.4,0.4-0.8,0.9-1.1,1.4c-0.3,0.5-0.7,1.2-1,1.9c-0.3,0.8-0.6,1.4-0.7,2C13.8,61.8,13.7,62.4,13.7,62.9z"/>
		<path class="st3" d="M27.4,65c0-0.8,0-1.7,0.1-2.7s0.2-2.1,0.4-3.3c0.1-1.2,0.3-2.3,0.5-3.3c0.2-1,0.3-1.8,0.5-2.5
			c0.1-0.5,0.4-1,0.7-1.4c0.4-0.4,0.9-0.5,1.5-0.5c0.6,0,1.1,0.2,1.3,0.6c0.2,0.4,0.4,0.9,0.4,1.6c0,0.2,0,0.4-0.1,0.7
			c0,0.3-0.1,0.6-0.1,1c-0.1,0.4-0.1,0.7-0.2,1.1c-0.1,0.4-0.1,0.8-0.2,1.3c-0.1,0.5-0.1,0.9-0.1,1.1c0,0.2-0.1,0.4-0.1,0.5h0.4
			c0.1-0.1,0.2-0.3,0.3-0.6c0.2-0.3,0.3-0.7,0.5-1.2c0.2-0.5,0.4-1,0.6-1.4c0.2-0.4,0.4-0.8,0.6-1.2c0.2-0.4,0.4-0.7,0.5-1
			c0.2-0.3,0.3-0.5,0.4-0.7c0.4-0.6,0.8-1.1,1.3-1.3c0.5-0.2,1-0.4,1.6-0.4c0.6,0,1.1,0.2,1.4,0.7c0.3,0.5,0.5,1.2,0.5,2
			c0,0.1,0,0.3-0.1,0.7c-0.1,0.3-0.1,0.7-0.2,1.1c-0.1,0.4-0.2,1-0.3,1.6c-0.1,0.7-0.2,1.3-0.3,1.8c-0.1,0.5-0.1,1.1-0.2,1.6
			c-0.1,0.5-0.1,1-0.1,1.4c0,0.7,0.1,1.3,0.3,1.8c0.2,0.5,0.5,0.7,0.9,0.7c0.1,0,0.3-0.1,0.6-0.2c0.4-0.1,0.6-0.3,0.7-0.4
			c0.5-0.4,0.8-0.6,0.8-0.6c0,0,0.4-0.2,1.2-0.7c0.9-0.6,2.1-1.3,3.4-2.2l0,3.9l-0.9,0.7c-0.1,0.1-0.6,0.4-1.7,0.9
			c-1.5,0.8-2.4,1.3-2.8,1.4c-0.9,0.4-1.5,0.6-1.7,0.7c-0.6,0.2-1.2,0.3-1.8,0.3c-0.6,0-1.2-0.5-1.6-1.4c-0.4-0.9-0.7-2.3-0.7-4.1
			c0-0.7,0-1.5,0.1-2.3c0.1-0.8,0.2-1.7,0.4-2.6h-0.3l-4.6,9.2c-0.2,0.5-0.5,0.8-0.8,1c-0.3,0.2-0.6,0.3-1,0.3
			c-0.5,0-0.9-0.1-1.2-0.3c-0.3-0.2-0.5-0.5-0.7-0.8c-0.2-0.3-0.3-0.7-0.3-1.2C27.4,65.9,27.4,65.4,27.4,65z"/>
	</g>
	<rect x="2.1" y="73.2" class="st3" width="52.1" height="3.6"/>
	<rect x="2.1" y="43.1" class="st3" width="52.1" height="3.6"/>
</g>
<g>
	<path class="st4" d="M203.6,21.8l0.4-1.9c-0.6,0.5-1.2,0.9-1.8,1.2c-0.6,0.3-1.2,0.5-1.8,0.5c-0.5,0-1-0.1-1.5-0.3
		c-0.5-0.2-0.9-0.5-1.3-0.9c-0.4-0.4-0.7-0.9-0.9-1.4c-0.2-0.6-0.3-1.2-0.3-1.9c0-0.9,0.1-1.8,0.2-2.6c0.1-0.8,0.3-1.7,0.5-2.9
		c0.2-1.1,0.4-2,0.7-2.7s0.6-1.3,0.9-2c0.2-0.5,0.6-0.8,1.1-1.1c0.5-0.3,0.9-0.4,1.3-0.4c0.4,0,0.7,0.1,1,0.3
		c0.3,0.2,0.4,0.5,0.4,0.9c0,0.1,0,0.2,0,0.4c0,0.1-0.1,0.3-0.1,0.4c-0.2,0.5-0.3,1.1-0.5,1.8c-0.1,0.7-0.3,1.6-0.5,2.7
		c-0.2,1.1-0.4,2-0.5,2.7c-0.1,0.7-0.2,1.3-0.2,1.8c0,0.3,0,0.5,0.1,0.8c0,0.3,0.1,0.5,0.2,0.7c0.1,0.2,0.2,0.4,0.4,0.5
		c0.2,0.1,0.4,0.2,0.6,0.2c0.4,0,0.8-0.2,1.1-0.5c0.3-0.3,0.6-0.8,0.8-1.2s0.4-1,0.6-1.5s0.2-0.9,0.3-1.3l1.3-6
		c0.1-0.4,0.2-0.7,0.4-1c0.2-0.3,0.5-0.5,0.8-0.7s0.6-0.3,0.9-0.4s0.6-0.1,0.9-0.1c0.3,0,0.6,0.1,0.8,0.2c0.2,0.1,0.3,0.4,0.3,0.7
		c0,0.1,0,0.2,0,0.3c0,0.3-0.1,0.7-0.2,1.1c-0.1,0.5-0.2,1-0.3,1.6s-0.3,1.5-0.4,2.6c-0.2,1.1-0.3,2-0.5,2.7
		c-0.3,1.6-0.5,3.3-0.8,5.1c0.3-0.2,0.7-0.4,1.1-0.7c0.4-0.3,0.8-0.6,1.3-1.1c0.5-0.4,1-1,1.5-1.7s1.2-1.5,1.9-2.5l0.8,3.6
		c-0.2,0.3-0.4,0.7-0.7,1c-0.3,0.4-0.7,0.7-1,1.1c-0.5,0.5-0.9,0.8-1.2,1c-0.1,0.1-0.5,0.4-1.2,0.9c-0.2,0.2-0.9,0.7-2.1,1.5
		c-0.3,0.2-0.5,0.5-0.6,1s-0.2,1.5-0.4,2.8c-0.1,0.4-0.1,0.7-0.1,0.9c-0.1,0.5-0.1,1-0.2,1.5s-0.2,1-0.3,1.6
		c-0.1,0.6-0.3,1.1-0.5,1.6c-0.2,0.5-0.5,1-0.8,1.5c-0.3,0.5-0.7,0.9-1.1,1.3c-0.4,0.3-0.9,0.6-1.4,0.8c-0.6,0.2-1.2,0.3-1.9,0.3
		c-0.5,0-1-0.1-1.5-0.2c-0.5-0.1-0.9-0.3-1.3-0.6c-0.4-0.3-0.7-0.6-0.9-1c-0.2-0.4-0.4-1-0.4-1.6c-0.1-1.1,0.2-2.3,0.9-3.6
		c0.4-0.7,0.7-1.2,0.8-1.5c0.2-0.3,0.4-0.7,0.8-1.2c0.3-0.5,0.7-1,1.1-1.4c0.7-0.8,1.4-1.5,1.9-2C202.3,23,202.9,22.4,203.6,21.8z
		 M203.6,25.7c-0.8,0.5-1.5,1.4-2.2,2.6c-0.7,1.2-1.3,2.4-1.7,3.6c-0.4,1-0.2,1.5,0.5,1.5c0.3,0,0.5,0,0.7-0.1
		c0.2-0.1,0.4-0.2,0.6-0.3c0.2-0.2,0.3-0.3,0.4-0.5c0.1-0.2,0.3-0.5,0.4-0.8c0.1-0.4,0.3-0.7,0.4-1.1s0.3-0.8,0.4-1.4
		c0.1-0.3,0.2-0.7,0.2-1c0-0.4,0.1-0.8,0.2-1.4C203.6,26.2,203.6,25.9,203.6,25.7z"/>
	<path class="st4" d="M222.7,9.2c0.3,0.6,0.5,1.3,0.7,2s0.2,1.5,0.2,2.3c0,0.6-0.1,1.3-0.2,1.9c-0.1,0.6-0.3,1.3-0.6,1.9
		s-0.6,1.2-1,1.7c-0.4,0.5-0.8,1-1.3,1.4s-1,0.7-1.6,0.9c-0.6,0.2-1.2,0.3-1.8,0.3c-0.9,0-1.7-0.2-2.4-0.6c-0.7-0.4-1.2-0.9-1.6-1.6
		c-0.4-0.7-0.7-1.4-0.9-2.2c-0.2-0.8-0.3-1.7-0.3-2.5c0-1.4,0.2-2.6,0.5-3.6c0.4-1,0.9-1.9,1.5-2.7c0.7-0.8,1.5-1.3,2.4-1.8
		s2-0.6,3.2-0.6c1,0,2,0.2,2.9,0.5c0.9,0.3,1.7,0.7,2.5,1.3c0.8,0.5,1.5,1.2,2.2,2c0.7,0.8,1.3,1.6,1.9,2.3l-0.3,2.3
		c-0.3-0.4-0.7-0.8-1.2-1.3c-0.5-0.4-1-0.9-1.6-1.5c-0.5-0.5-1.1-1-1.6-1.4c-0.5-0.4-1-0.7-1.4-1L222.7,9.2z M217.8,18.5
		c0.4,0,0.7-0.2,1.1-0.6c0.3-0.4,0.6-0.8,0.9-1.4s0.5-1.2,0.6-2c0.2-0.8,0.2-1.5,0.2-2.1c0-0.5,0-0.9-0.1-1.4
		c-0.1-0.4-0.2-0.8-0.3-1.1c-0.1-0.3-0.3-0.6-0.6-0.7c-0.2-0.2-0.5-0.3-0.8-0.3c-0.4,0-0.9,0.2-1.2,0.6c-0.4,0.4-0.7,0.9-1,1.4
		c-0.3,0.6-0.5,1.2-0.7,1.9c-0.2,0.7-0.3,1.5-0.3,2.4c0,0.4,0,0.9,0.1,1.3c0.1,0.4,0.2,0.7,0.4,1c0.2,0.3,0.4,0.5,0.7,0.7
		C217,18.4,217.3,18.5,217.8,18.5z"/>
	<path class="st4" d="M238.7,6.6c0,0.3,0,0.7,0,1.2c0,0.5-0.1,1-0.2,1.6c-0.1,0.6-0.2,1.3-0.4,2.1s-0.3,1.5-0.4,2.1
		c-0.1,0.5-0.2,1-0.3,1.4s-0.1,0.7-0.1,0.9c0,0.3,0,0.6,0,0.8c0,0.3,0,0.5,0.1,0.7c0,0.2,0.1,0.3,0.2,0.4c0.1,0.1,0.2,0.2,0.4,0.2
		c0.2,0,0.5-0.1,0.9-0.2c0.3-0.1,0.7-0.3,1.1-0.5c0.4-0.2,0.8-0.4,1.2-0.7c0.4-0.3,0.8-0.5,1.1-0.8c0.4-0.3,0.7-0.6,1-0.8
		s0.5-0.5,0.7-0.8c0,0.4,0,0.7,0,1c0,0.3,0,0.6,0,0.8c0,0.3,0,0.5,0,0.8c0,0.3,0,0.6,0,0.9c-0.2,0.2-0.5,0.5-0.9,0.7
		c-0.3,0.3-0.7,0.5-1.2,0.8c-0.4,0.3-0.9,0.5-1.3,0.8c-0.5,0.2-1,0.5-1.4,0.6c-0.5,0.2-1,0.3-1.4,0.4c-0.5,0.1-0.9,0.2-1.3,0.2
		c-0.4,0-0.7-0.1-1-0.2c-0.3-0.2-0.5-0.4-0.7-0.7c-0.2-0.3-0.4-0.6-0.5-1c-0.1-0.4-0.3-0.8-0.4-1.3c-0.4,0.5-0.8,1-1.2,1.4
		s-0.9,0.8-1.3,1.1c-0.4,0.3-0.9,0.5-1.3,0.7c-0.5,0.2-0.9,0.3-1.3,0.3c-0.4,0-0.7-0.1-1-0.2s-0.6-0.3-0.8-0.6s-0.4-0.6-0.6-1.1
		c-0.1-0.5-0.2-1-0.2-1.7c0-1.4,0.1-2.5,0.3-3.2c0.3-1.1,0.6-2.7,0.9-4.9c0-0.2,0.1-0.4,0.1-0.6c0.1-0.3,0.1-0.6,0.2-0.9
		c0.1-0.3,0.2-0.6,0.4-1c0.1-0.3,0.3-0.6,0.5-0.9s0.4-0.5,0.7-0.7c0.3-0.2,0.6-0.3,0.9-0.3c0.6,0,1,0.1,1.2,0.3s0.4,0.4,0.4,0.6
		c-0.1,0.7-0.2,1.4-0.3,2.1c-0.1,0.7-0.2,1.3-0.4,2c-0.1,0.7-0.3,1.4-0.4,2.3s-0.3,1.5-0.4,2c-0.1,0.5-0.2,0.9-0.2,1.2
		s-0.1,0.5-0.1,0.5c0,0.2,0,0.4,0.1,0.6c0,0.2,0.1,0.3,0.2,0.5c0.1,0.1,0.2,0.3,0.3,0.3c0.1,0.1,0.3,0.1,0.4,0.1
		c0.2,0,0.5-0.1,0.7-0.2c0.2-0.1,0.5-0.3,0.7-0.5c0.2-0.2,0.4-0.5,0.6-0.8c0.2-0.3,0.3-0.7,0.4-1.2l1.8-8.7c0.1-0.3,0.3-0.5,0.6-0.6
		c0.4-0.2,0.8-0.3,1.2-0.3c0.5,0,0.9,0.1,1.3,0.3S238.7,6.3,238.7,6.6z"/>
</g>
<g>
	<path class="st5" d="M4.9,122.4c4.2-4.2,6.1-12.5,6.1-17.4v-0.7c2.2-0.3,2.8-1.3,3.1-1.3s0.5,0.8,2.3,1.3c0,0-0.3,1.7-0.3,3.1
		c0,4.3,1.4,8.5,4.5,13.4c-1.6,0.7-2.8,2.1-2.9,2.1s-1.2-0.7-2.6-0.7c-0.2,0-0.4,0-0.6,0.1v-0.4c0-1.7-0.9-2.3-1.7-2.3
		c-1.2,0-1.5,1-1.6,2c0,0.8,0.3,2.1,0.6,2.8c-0.7,0-1.5-0.1-2.1-0.1c-0.7,0-1.3,0.2-1.9,0.4C7.2,124.1,6,122.9,4.9,122.4z M7.6,98.4
		c0.5,0,0.2,1.3,1.5,1.3c3.2-0.2,7.5-6,10.2-8.2c2.8-2.3,5.1-3.5,8.2-3.5c0.8,0,1.9,0.2,1.9,0.6c0,0.1,0,0.2-0.2,0.2h-0.3
		c-4,0-6.3,2.6-9.2,5.1c-2.4,2.1-7.1,7.5-10.6,7.5c-1.3,0-2.4-0.5-2.4-1.7C6.7,99.1,7.1,98.6,7.6,98.4z M7.6,92.9
		c0.2,0,0.8,0.6,1.7,0.6c3.2,0,4.5-4.8,8-4.8c1.1,0,1.2,0.5,1.2,0.8s-1.6,0.7-2.9,2.1c-2.4,2.4-3.7,3.1-5.5,3.1
		c-1.1,0-2.1-0.4-2.7-1.6C7.3,92.9,7.4,92.9,7.6,92.9z M13.1,117.7c0.8,0,1.1-0.4,1.1-1.2c0-1.5-0.5-3.2-0.9-4.7
		c-0.1-0.1-0.2-0.2-0.2-0.2c-0.2,1.5-0.8,2.9-0.9,4.6C12.2,116.8,12.4,117.7,13.1,117.7z M21.8,109.2c0-3.2-0.6-7.4-1.8-10.6
		c1.6-0.5,2-1.3,2.4-2.1c0.5,0,1.1,0.6,2.2,0.6c0.2,1.6,1.7,5.5,3.1,6.7v-5.2c0-1.7-0.1-3.1-0.4-4.1c-0.2-0.7-0.6-1.3-0.6-1.3
		c1.2-0.5,1.8-1.1,2.5-2c0.8,0.3,1.8,0.4,2.8,0.7c-0.9,2-1.3,4.8-1.3,8c0,4.3,0.7,9,1.6,11.1c-0.9,0.7-1.2,1-1.6,1.6
		c-0.5-0.1-0.8-0.2-1.3-0.2c-0.3,0-0.7,0.1-1.3,0.1c-0.5-2.4-1.4-3.6-3-6.3c-0.1,0.1-0.1,0.3-0.1,0.5v0.4c0.1,3.5,0.1,5.6,1.2,8.6
		c-1.2,0.5-2.4,1.6-3.1,2.8c-0.9-0.6-1.9-1.2-2.8-1.3C21.2,115.6,21.8,110.3,21.8,109.2z M32.8,117.6c2.2-2.2,5.3-7.6,10.5-7.6
		c0.3,0,0.8,0.5,0.8,0.6c-3.2,1.3-4.3,2.4-9.3,8.8c-2.3,2.9-5.8,4.9-8.3,4.9c-3.6,0-3.9-0.9-3.9-1.7
		C27.3,122.5,28.9,121.5,32.8,117.6z M34.5,99.5c0-7.7-0.3-8.4-1.3-10.4c1.7-0.2,1.7-0.8,2.1-1.2c0.4,0.1,0.7,0.2,1.1,0.2
		c0.2,0,0.5,0,0.8-0.1l0.4,0.6c1.8-0.3,2.5-0.6,4-0.6c4.2,0,4.5,2.8,4.8,6.5c0.1,0.5,0.3,1.3,1.1,2c-0.5,0.7-1.1,1.4-1.2,2.2
		c-0.2,3.8-0.9,7.1-5.8,8.3c-2.1,0.5-2.2,0.6-3.6,1.4l-0.6,0.3c-0.7-0.3-0.9-0.8-2.8-1.2C34,105.4,34.5,102.4,34.5,99.5z
		 M35.2,124.5c0.4,0,1.1-0.2,1.9-0.5c1-0.4,2.2-1.8,3.4-4c1.2-2.2,1.6-2.9,3.8-3.8c0.2-0.1,0.3-0.3,0.3-0.3c0-0.1-0.1-0.2-0.3-0.2
		c-2.8,0-4,1.1-5.1,2.8c-0.7,1.2-1.4,2.9-3.1,4.4c-0.7,0.8-1.3,1.3-1.3,1.4S34.9,124.5,35.2,124.5z M38.3,99.3
		c0,2.6,0.2,4.5,1.2,4.5c2.1,0,2.8-5.6,2.8-7.5v-1.5c0-1.7-0.2-3.2-2.2-3.6c-1.9,0-1.6,2.5-1.7,4.5C38.4,96.7,38.3,98.4,38.3,99.3z"
		/>
</g>
<g>
	<path class="st3" d="M235.3,157.6c-0.2-0.1-0.4-0.2-0.4-0.3c-0.1-0.2-0.1-0.5-0.2-1c-0.8-4.8-1.2-8.7-1.3-11.4
		c-0.1-2.8,0-5,0.5-6.6c0.6-2.1,1.7-3.7,3.2-4.5c1.5-0.9,3.3-1,5.4-0.4c2.1,0.6,3.6,1.6,4.4,3.2c0.9,1.5,1,3.4,0.4,5.5
		c-0.4,1.6-1.4,3.5-3,5.9c-1.5,2.3-3.9,5.4-7.1,9.1c-0.3,0.4-0.5,0.6-0.7,0.7c-0.1,0.1-0.3,0.1-0.6,0.1L235.3,157.6z M232.7,168.2
		c-1.6-0.4-2.8-1.2-3.5-2.4c-0.7-1.1-0.9-2.4-0.5-3.7c0.4-1.4,1.2-2.3,2.4-2.9c1.2-0.6,2.6-0.6,4.2-0.2c1.6,0.4,2.7,1.2,3.5,2.4
		c0.8,1.1,0.9,2.4,0.6,3.7c-0.4,1.4-1.2,2.3-2.4,2.9C235.8,168.6,234.4,168.6,232.7,168.2z"/>
</g>
<g>
	<path class="st6" d="M10.6,9.3l3.9,20.2l4.9-24.9c0.4-2.2,1.5-3.3,3.2-3.3c1.8,0,2.9,1,3.3,2.9l4.8,25.6L34.8,10
		c0.3-1.4,0.4-2.5,0.4-3.2c0-1.3-0.7-2-2-2c-0.3,0-0.7,0-1.2,0.1C31.4,5,31,5,30.7,5c-1.4,0-2.1-0.6-2.1-1.7c0-1.1,0.7-1.6,2-1.6
		c0.5,0,1,0,1.6,0.1c2.6,0.3,4.3,0.5,5.2,0.5C38,2.3,39,2.2,40.2,2c1.3-0.2,2.2-0.3,2.8-0.3c1.2,0,1.8,0.6,1.8,1.7
		c0,1.1-0.6,1.6-1.7,1.6c-0.2,0-0.5,0-0.9-0.1c-0.4-0.1-0.7-0.1-0.9-0.1c-0.7,0-1.2,0.3-1.5,0.8C39.6,6,39.3,7.2,38.9,9l-5.4,22.8
		c-0.4,1.8-1.4,2.6-3,2.6c-1.7,0-2.7-1.1-3.1-3.3L22.6,5.9l-5.3,26c-0.4,1.7-1.3,2.6-2.7,2.6c-1.5,0-2.5-0.9-2.9-2.6L6,8
		c-0.3-1.2-0.6-2-1.1-2.5c-0.4-0.4-1.1-0.6-2-0.6H2.6L1.5,5C0.5,5,0,4.5,0,3.4c0-1.1,0.6-1.7,1.7-1.7c0.4,0,1,0,1.5,0.1
		c1.7,0.3,3.4,0.4,5,0.4c0.8,0,2.5-0.2,5.3-0.5c0.5-0.1,0.9-0.1,1.4-0.1c1.1,0,1.7,0.5,1.7,1.6c0,1.1-0.7,1.7-2.1,1.7
		c-0.3,0-0.7,0-1.3-0.1c-0.6-0.1-1-0.1-1.3-0.1c-1.1,0-1.7,0.5-1.7,1.6c0,0.4,0,0.8,0.1,1.3L10.6,9.3z"/>
	<path class="st6" d="M65.3,19.7c0,1.2-0.1,2-0.2,2.2c-0.2,0.3-0.6,0.4-1.4,0.4H48.4c-0.4,0-0.7,0.1-0.8,0.2
		c-0.1,0.1-0.2,0.3-0.2,0.5c0,2.4,0.7,4.4,2.2,6c1.4,1.6,3.2,2.4,5.4,2.4c1.4,0,2.7-0.4,3.8-1.1c1.2-0.8,1.9-1.7,2.3-2.9l0.4-1.4
		c0.2-0.8,0.7-1.1,1.6-1.1c1.2,0,1.8,0.6,1.8,1.8c0,2.1-1.1,3.9-3.2,5.5c-2.1,1.6-4.5,2.4-7.2,2.4c-3.3,0-6-1.1-8-3.4
		c-2-2.2-3-5.3-3-9.1c0-3.9,1.1-7,3.2-9.5c2.1-2.4,4.8-3.6,8.2-3.6c3,0,5.5,1,7.4,3S65.3,16.6,65.3,19.7z M47.9,18.5
		c0,0.4,0.4,0.7,1.1,0.7h11.4c0.7,0,1-0.2,1-0.7c0-1.7-0.6-3.2-1.9-4.4c-1.3-1.2-2.8-1.9-4.5-1.9c-1.8,0-3.4,0.6-4.9,1.9
		C48.6,15.4,47.9,16.9,47.9,18.5z"/>
</g>
</svg>
