<?xml version="1.0" encoding="utf-8"?>
<!-- Generator: Adobe Illustrator 19.1.0, SVG Export Plug-In . SVG Version: 6.00 Build 0)  -->
<svg version="1.1" id="Layer_1" xmlns="http://www.w3.org/2000/svg" xmlns:xlink="http://www.w3.org/1999/xlink" x="0px" y="0px"
	 viewBox="0 0 83.2 32.7" style="enable-background:new 0 0 83.2 32.7;" xml:space="preserve">
<style type="text/css">
	.st0{fill:#F99900;}
	.st1{fill:#F28900;}
</style>
<g>
	<path class="st0" d="M0,32.1V13.3h3.7c2.2,0,3.7,0.2,4.4,0.5c0.7,0.3,1.3,0.8,1.7,1.5c0.4,0.7,0.6,1.4,0.6,2.2
		c0,0.7-0.1,1.3-0.3,1.9S9.5,20.5,9,21c-0.4,0.5-1.1,1-1.9,1.4c1.5,0.6,2.5,1.3,3,2.2c0.5,0.9,0.8,1.7,0.8,2.6
		c0,0.8-0.2,1.6-0.7,2.4S9.3,31,8.5,31.5c-0.8,0.4-2.1,0.6-3.9,0.6H0z M2.4,21.7H5c0.8-0.3,1.4-0.7,1.8-1.1c0.4-0.4,0.7-0.8,0.9-1.3
		c0.2-0.5,0.3-1,0.3-1.6c0-0.9-0.3-1.6-0.8-2c-0.5-0.4-1.5-0.6-3-0.6H2.4V21.7z M2.4,30.2h2.3c1.3,0,2.2-0.3,2.9-0.9
		c0.6-0.6,0.9-1.3,0.9-2.2c0-0.6-0.2-1.2-0.5-1.7s-0.9-1-1.6-1.3c-0.7-0.3-1.8-0.5-3.3-0.5H2.4V30.2z"/>
	<path class="st0" d="M24.9,30v2.1H14.8V13.3h10v1.9h-7.5v6.4H24v1.9h-6.8V30H24.9z"/>
	<path class="st0" d="M29.5,32.1h-2.4l5.8-18.8h2.5l5.8,18.8h-2.6L37.3,28h-6.6L29.5,32.1z M31.3,26.1h5.5l-2.3-7.1L34,17l-0.5,1.9
		L31.3,26.1z"/>
	<path class="st0" d="M54.3,31.9c-1.4,0.5-2.7,0.8-3.8,0.8c-1.5,0-2.8-0.4-4.1-1.2c-1.2-0.8-2.2-2-2.9-3.5c-0.7-1.6-1-3.3-1-5.3
		c0-1.9,0.3-3.7,1-5.2c0.7-1.6,1.6-2.7,2.9-3.5c1.2-0.8,2.6-1.2,4.1-1.2c1.1,0,2.4,0.3,3.8,0.8v2.2c-1.3-0.8-2.6-1.1-3.9-1.1
		c-1,0-1.9,0.3-2.7,1c-0.8,0.7-1.5,1.6-1.9,2.9c-0.5,1.3-0.7,2.7-0.7,4.2c0,1.5,0.3,2.9,0.8,4.2c0.5,1.3,1.2,2.3,1.9,2.9
		c0.8,0.6,1.7,1,2.6,1c1.3,0,2.6-0.4,3.9-1.1V31.9z"/>
	<path class="st0" d="M62.9,32.7c-2.1,0-3.8-0.9-4.9-2.7c-1.1-1.8-1.7-4.2-1.7-7.3c0-3,0.6-5.5,1.7-7.3c1.1-1.8,2.8-2.7,4.9-2.7
		s3.8,0.9,4.9,2.7c1.1,1.8,1.7,4.2,1.7,7.3c0,3.1-0.6,5.5-1.7,7.3C66.7,31.8,65.1,32.7,62.9,32.7z M62.9,30.8c1.2,0,2.2-0.7,2.9-2
		c0.8-1.3,1.2-3.4,1.2-6.1c0-2.7-0.4-4.7-1.2-6.1c-0.8-1.3-1.8-2-2.9-2c-1.2,0-2.2,0.7-3,2c-0.8,1.3-1.2,3.4-1.2,6.1
		c0,2.7,0.4,4.7,1.2,6.1C60.8,30.1,61.7,30.8,62.9,30.8z"/>
	<path class="st0" d="M73.7,32.1h-2.3V13.3h2.2l6.7,12.5l0.7,1.9H81L81,25.8V13.3h2.3v18.8H81l-6.5-12.3l-0.9-2l0,1.9V32.1z"/>
</g>
<g>
	<polygon points="21.2,0.6 21.2,0.7 21.2,9.5 21.2,9.6 21.1,9.6 20,9.6 20,10.2 21.9,10.2 21.9,0 20,0 20,0.6 21.1,0.6 	"/>
	<polygon points="0.7,0.7 0.7,0.6 0.8,0.6 1.9,0.6 1.9,0 0,0 0,10.2 1.9,10.2 1.9,9.6 0.8,9.6 0.7,9.6 0.7,9.6 	"/>
	<path d="M7.5,6.8C7.7,6.7,7.8,6.6,8,6.5c1.3-0.8,2.5-1.7,2.5-3.5c0-1.8-1.3-3-3.2-3c-1,0-1.8,0.3-2.4,1C4.2,1.6,3.8,2.6,3.9,3.7
		l0,0.1h1.4l0-0.1c0-0.7,0.2-1.4,0.6-1.9c0.3-0.3,0.7-0.5,1.2-0.5C8.2,1.3,9,2,9,3c0,1.3-0.7,1.9-2.5,2.9C5,6.9,3.8,7.8,3.6,10.1
		l0,0.1h6.8V8.9H5.3C5.5,8,6.5,7.4,7.5,6.8z"/>
	<path d="M16.8,6.6V0h-1.4l-4.3,6.3l0,0.3v1.3h4.4v2.3h1.4V7.9h1.4V6.6H16.8z M12.4,6.6l3-4.4v4.4H12.4z"/>
	<path class="st1" d="M23.7,0v1.4h5.2C26.6,3.9,25.2,7,25,10.1l0,0.1h1.6l0-0.1c0.2-3.1,1.8-6.8,3.9-8.9l0,0V0H23.7z"/>
</g>
</svg>
