<?xml version="1.0" encoding="utf-8"?>
<!-- Generator: Adobe Illustrator 19.1.0, SVG Export Plug-In . SVG Version: 6.00 Build 0)  -->
<svg version="1.1" id="Layer_1" xmlns="http://www.w3.org/2000/svg" xmlns:xlink="http://www.w3.org/1999/xlink" x="0px" y="0px"
	 viewBox="28.4 -11.8 89.4 30" style="enable-background:new 28.4 -11.8 89.4 30;" xml:space="preserve">
<style type="text/css">
	.st0{fill:#FFFFFF;}
</style>
<g>
	<polygon class="st0" points="90.4,-10.1 90.4,-9.9 90.4,16.1 90.4,16.4 90.1,16.4 86.9,16.4 86.9,18.2 92.4,18.2 92.4,-11.8 
		86.9,-11.8 86.9,-10.1 90.1,-10.1 	"/>
	<polygon class="st0" points="30.4,-9.9 30.4,-10.2 30.7,-10.2 33.9,-10.2 33.9,-11.8 28.4,-11.8 28.4,18.2 33.9,18.2 33.9,16.4 
		30.7,16.4 30.4,16.4 30.4,16.2 	"/>
	<path class="st0" d="M50.5,8c0.4-0.2,0.9-0.5,1.3-0.8c3.7-2.3,7.3-5,7.3-10.3c0-5.2-3.8-8.8-9.5-8.8c-3,0-5.4,1-7.1,2.8
		c-1.8,1.9-2.8,4.8-2.6,7.9l0,0.3H44v-0.3c-0.1-2.2,0.6-4.2,1.8-5.5c0.9-1,2.1-1.5,3.6-1.5c3.1,0,5.3,2.1,5.3,4.9
		c0,3.8-2.1,5.4-7.3,8.6C43,8.2,39.6,10.9,39,17.7l0,0.4h19.8v-3.8h-15C44.6,11.5,47.5,9.8,50.5,8z"/>
	<path class="st0" d="M77.6,7.5v-19.3h-4.1L60.9,6.6l-0.1,0.9v3.8h12.9v6.9h4v-6.9h4V7.5H77.6z M64.8,7.5l8.9-13v13H64.8z"/>
	<path class="st0" d="M97.8-11.8v4.1H113c-6.6,7.3-10.7,16.5-11.3,25.6l0,0.4h4.7l0-0.3c0.5-9.1,5.3-20,11.3-26l0.1-0.1v-3.6H97.8z"
		/>
</g>
</svg>
