<?xml version="1.0" encoding="utf-8"?>
<!-- Generator: Adobe Illustrator 19.1.0, SVG Export Plug-In . SVG Version: 6.00 Build 0)  -->
<svg version="1.1" id="Layer_1" xmlns="http://www.w3.org/2000/svg" xmlns:xlink="http://www.w3.org/1999/xlink" x="0px" y="0px"
	 viewBox="0 0 156.7 34.8" style="enable-background:new 0 0 156.7 34.8;" xml:space="preserve">
<style type="text/css">
	.st0{fill:#2F5A9D;}
	.st1{fill:#159294;}
	.st2{fill:#7F2753;}
	.st3{fill:#212121;}
</style>
<path class="st0" d="M30.5,12.1l-0.9,9.7H10.7l-0.1,1.6c-0.1,0.9,0.3,1.7,1,2.3c0.8,0.6,1.7,0.9,2.9,0.9c1.2,0,2.2-0.3,3.1-0.9
	c0.9-0.6,1.4-1.4,1.5-2.3h10.5c-0.3,3.1-1.9,5.8-5,8c-3.1,2.2-6.7,3.3-10.8,3.3c-4.1,0-7.4-1.1-10.1-3.3c-2.7-2.2-3.9-4.9-3.6-8
	l1-11.3C1.3,9,3,6.4,6,4.1s6.6-3.3,10.7-3.3c4.1,0,7.5,1.1,10.2,3.3C29.5,6.4,30.7,9,30.5,12.1z M19.9,12.1c0.1-0.9-0.3-1.7-1-2.3
	c-0.8-0.6-1.7-0.9-2.9-0.9c-1.1,0-2.1,0.3-3,0.9c-0.9,0.6-1.4,1.4-1.5,2.3l-0.1,1.6h8.4L19.9,12.1z"/>
<path class="st1" d="M60.2,12.1H49.7c0.1-0.9-0.3-1.7-1-2.3c-0.8-0.6-1.7-0.9-2.9-0.9c-2.8,0-4.2,0.5-4.3,1.6
	c-0.1,1.7,1.4,2.9,4.6,3.8c5,1.3,8,2.2,8.8,2.7c3.1,1.7,4.5,4.4,4.2,8.1c-0.2,2.7-1.8,5-4.9,6.9c-3,1.9-6.6,2.8-10.7,2.8
	c-4.1,0-7.4-1.1-10.1-3.3c-2.7-2.2-3.9-4.9-3.6-8h10.5c-0.1,0.9,0.3,1.7,1,2.3c0.8,0.6,1.7,0.9,2.8,0.9c2.8,0,4.3-0.5,4.4-1.6
	c0.1-1.7-1.4-2.9-4.6-3.8c-5-1.3-8-2.2-8.8-2.7c-3.1-1.7-4.5-4.4-4.2-8.1c0.2-2.7,1.8-5,4.9-6.9c3-1.9,6.6-2.8,10.6-2.8
	c4.1,0,7.5,1.1,10.2,3.3C59.3,6.4,60.5,9,60.2,12.1z"/>
<path class="st2" d="M90,12.1l-2,22.6H77.4l0.3-3.2c-2.3,2.2-5.2,3.2-8.7,3.2c-2.9,0-5.3-0.8-7.2-2.4c-1.9-1.6-2.8-3.5-2.6-5.7
	l1.3-14.5c0.3-3.1,1.9-5.8,5-8c3.1-2.2,6.6-3.3,10.7-3.3c4.1,0,7.5,1.1,10.2,3.3C89,6.4,90.2,9,90,12.1z M79.4,12.1
	c0.1-0.9-0.3-1.7-1-2.3c-0.8-0.6-1.7-0.9-2.9-0.9c-1.1,0-2.1,0.3-3,0.9c-0.9,0.6-1.4,1.4-1.5,2.3l-1,11.3c-0.1,0.9,0.3,1.7,1,2.3
	c0.8,0.6,1.7,0.9,2.8,0.9c1.2,0,2.2-0.3,3.1-0.9c0.9-0.6,1.4-1.4,1.5-2.3L79.4,12.1z"/>
<g>
	<path class="st3" d="M98.5,0.2h5.6v1.2h-4.3v2h3.9v1.1h-3.9v2.3h4.3V8h-5.7V0.2z"/>
	<path class="st3" d="M105.4,0.2h1.9l2.2,6.1h0l2.1-6.1h1.9V8h-1.3V2h0L110,8h-1.1l-2.2-6h0v6h-1.3V0.2z"/>
	<path class="st3" d="M115.1,0.2h3.5c0.6,0,1,0.1,1.4,0.2c0.3,0.2,0.6,0.4,0.8,0.6c0.2,0.2,0.3,0.5,0.4,0.8c0.1,0.3,0.1,0.5,0.1,0.8
		s0,0.5-0.1,0.8c-0.1,0.3-0.2,0.5-0.4,0.8c-0.2,0.2-0.5,0.4-0.8,0.6c-0.4,0.2-0.8,0.2-1.4,0.2h-2.1v3h-1.4V0.2z M116.5,3.9h2
		c0.2,0,0.3,0,0.5-0.1c0.2,0,0.3-0.1,0.4-0.2c0.1-0.1,0.2-0.2,0.3-0.4c0.1-0.2,0.1-0.4,0.1-0.6c0-0.3,0-0.5-0.1-0.6
		c-0.1-0.2-0.2-0.3-0.3-0.4c-0.1-0.1-0.3-0.2-0.4-0.2c-0.2,0-0.3-0.1-0.5-0.1h-2V3.9z"/>
	<path class="st3" d="M122.4,0.2h1.4v6.6h4V8h-5.3V0.2z"/>
	<path class="st3" d="M132,0c0.6,0,1.1,0.1,1.6,0.3c0.5,0.2,0.9,0.5,1.2,0.9c0.3,0.4,0.6,0.8,0.7,1.3c0.2,0.5,0.3,1,0.3,1.6
		c0,0.6-0.1,1.1-0.3,1.6c-0.2,0.5-0.4,0.9-0.7,1.3c-0.3,0.4-0.7,0.7-1.2,0.9c-0.5,0.2-1,0.3-1.6,0.3s-1.1-0.1-1.6-0.3
		s-0.9-0.5-1.2-0.9c-0.3-0.4-0.6-0.8-0.7-1.3c-0.2-0.5-0.3-1-0.3-1.6c0-0.6,0.1-1.1,0.3-1.6c0.2-0.5,0.4-0.9,0.7-1.3
		c0.3-0.4,0.7-0.7,1.2-0.9S131.5,0,132,0z M132,1.1c-0.4,0-0.8,0.1-1.1,0.3c-0.3,0.2-0.6,0.4-0.7,0.7c-0.2,0.3-0.3,0.6-0.4,1
		c-0.1,0.4-0.1,0.7-0.1,1.1c0,0.4,0,0.7,0.1,1.1c0.1,0.4,0.2,0.7,0.4,1c0.2,0.3,0.4,0.5,0.7,0.7c0.3,0.2,0.7,0.3,1.1,0.3
		s0.8-0.1,1.1-0.3c0.3-0.2,0.6-0.4,0.7-0.7c0.2-0.3,0.3-0.6,0.4-1c0.1-0.4,0.1-0.7,0.1-1.1c0-0.4,0-0.7-0.1-1.1
		c-0.1-0.4-0.2-0.7-0.4-1c-0.2-0.3-0.4-0.5-0.7-0.7C132.8,1.2,132.5,1.1,132,1.1z"/>
	<path class="st3" d="M139.1,4.9l-2.9-4.8h1.6l2.1,3.5l2-3.5h1.5l-2.9,4.8V8h-1.4V4.9z"/>
	<path class="st3" d="M144.1,0.2h5.6v1.2h-4.3v2h3.9v1.1h-3.9v2.3h4.3V8h-5.7V0.2z"/>
	<path class="st3" d="M151,0.2h5.6v1.2h-4.3v2h3.9v1.1h-3.9v2.3h4.3V8H151V0.2z"/>
	<path class="st3" d="M99.4,18.5c0,0.3,0,0.6,0.2,0.8c0.1,0.2,0.2,0.4,0.4,0.5c0.2,0.1,0.4,0.2,0.6,0.3c0.2,0.1,0.5,0.1,0.8,0.1
		c0.3,0,0.6,0,0.8-0.1c0.2-0.1,0.4-0.2,0.5-0.3c0.1-0.1,0.2-0.2,0.3-0.4c0.1-0.1,0.1-0.3,0.1-0.4c0-0.3-0.1-0.5-0.2-0.7
		c-0.1-0.1-0.3-0.2-0.4-0.3c-0.3-0.1-0.6-0.2-1-0.3c-0.4-0.1-0.8-0.2-1.4-0.4c-0.3-0.1-0.6-0.2-0.8-0.3s-0.4-0.3-0.5-0.5
		c-0.1-0.2-0.2-0.4-0.3-0.6c-0.1-0.2-0.1-0.4-0.1-0.6c0-0.4,0.1-0.7,0.2-1c0.2-0.3,0.4-0.5,0.7-0.7c0.3-0.2,0.6-0.3,0.9-0.4
		c0.3-0.1,0.7-0.1,1-0.1c0.4,0,0.8,0.1,1.2,0.2c0.4,0.1,0.7,0.3,1,0.5c0.3,0.2,0.5,0.5,0.7,0.8c0.2,0.3,0.2,0.7,0.2,1.1h-1.4
		c0-0.5-0.2-0.9-0.5-1.1c-0.3-0.2-0.7-0.3-1.2-0.3c-0.2,0-0.3,0-0.5,0.1c-0.2,0-0.3,0.1-0.5,0.2c-0.1,0.1-0.3,0.2-0.3,0.3
		c-0.1,0.1-0.1,0.3-0.1,0.5c0,0.3,0.1,0.5,0.3,0.7c0.2,0.2,0.4,0.3,0.7,0.4c0,0,0.1,0,0.3,0.1c0.2,0.1,0.4,0.1,0.7,0.2
		c0.2,0.1,0.5,0.1,0.7,0.2c0.2,0.1,0.4,0.1,0.5,0.1c0.3,0.1,0.5,0.2,0.7,0.3c0.2,0.1,0.3,0.3,0.5,0.5c0.1,0.2,0.2,0.4,0.3,0.6
		c0.1,0.2,0.1,0.4,0.1,0.6c0,0.4-0.1,0.8-0.3,1.1c-0.2,0.3-0.4,0.6-0.7,0.8c-0.3,0.2-0.6,0.3-1,0.4c-0.4,0.1-0.8,0.1-1.1,0.1
		c-0.4,0-0.9-0.1-1.3-0.2c-0.4-0.1-0.7-0.3-1-0.5c-0.3-0.2-0.5-0.5-0.7-0.9C98.1,19.4,98,19,98,18.5H99.4z"/>
	<path class="st3" d="M105.6,13.3h5.6v1.2h-4.3v2h3.9v1.1h-3.9V20h4.3v1.2h-5.7V13.3z"/>
	<path class="st3" d="M112.5,13.3h3.7c0.9,0,1.5,0.2,1.9,0.6c0.4,0.4,0.6,0.9,0.6,1.6c0,0.4-0.1,0.7-0.2,0.9
		c-0.1,0.2-0.2,0.4-0.4,0.6c-0.1,0.1-0.3,0.3-0.4,0.3c-0.1,0.1-0.2,0.1-0.3,0.1v0c0.1,0,0.2,0.1,0.4,0.1c0.1,0.1,0.3,0.2,0.4,0.3
		c0.1,0.1,0.2,0.3,0.3,0.5c0.1,0.2,0.1,0.5,0.1,0.8c0,0.5,0,0.9,0.1,1.3c0.1,0.4,0.2,0.6,0.3,0.8h-1.5c-0.1-0.2-0.2-0.4-0.2-0.6
		c0-0.2,0-0.4,0-0.6c0-0.4,0-0.7-0.1-0.9c0-0.3-0.1-0.5-0.2-0.6c-0.1-0.2-0.3-0.3-0.5-0.4c-0.2-0.1-0.5-0.1-0.8-0.1h-2v3.2h-1.4
		V13.3z M113.8,16.9h2.2c0.4,0,0.8-0.1,1-0.3c0.2-0.2,0.3-0.5,0.3-0.9c0-0.2,0-0.5-0.1-0.6c-0.1-0.2-0.2-0.3-0.3-0.4
		c-0.1-0.1-0.3-0.1-0.4-0.2c-0.2,0-0.3,0-0.5,0h-2.2V16.9z"/>
	<path class="st3" d="M119.1,13.3h1.4l2,6.2h0l2-6.2h1.4l-2.7,7.8h-1.5L119.1,13.3z"/>
	<path class="st3" d="M126.7,13.3h1.4v7.8h-1.4V13.3z"/>
	<path class="st3" d="M135,15.8c-0.1-0.2-0.1-0.4-0.2-0.6c-0.1-0.2-0.2-0.4-0.4-0.5c-0.2-0.1-0.3-0.2-0.6-0.3
		c-0.2-0.1-0.5-0.1-0.8-0.1c-0.4,0-0.8,0.1-1.1,0.3c-0.3,0.2-0.5,0.4-0.7,0.7c-0.2,0.3-0.3,0.6-0.4,1c-0.1,0.4-0.1,0.7-0.1,1.1
		c0,0.4,0,0.7,0.1,1.1c0.1,0.4,0.2,0.7,0.4,1c0.2,0.3,0.4,0.5,0.7,0.7c0.3,0.2,0.7,0.3,1.1,0.3c0.3,0,0.6-0.1,0.8-0.2
		s0.4-0.3,0.6-0.4c0.2-0.2,0.3-0.4,0.4-0.7c0.1-0.2,0.2-0.5,0.2-0.8h1.3c0,0.5-0.1,0.9-0.3,1.3c-0.2,0.4-0.4,0.7-0.7,1
		c-0.3,0.3-0.6,0.5-1,0.7c-0.4,0.2-0.8,0.2-1.3,0.2c-0.6,0-1.1-0.1-1.6-0.3s-0.9-0.5-1.2-0.9c-0.3-0.4-0.6-0.8-0.7-1.3
		c-0.2-0.5-0.3-1-0.3-1.6c0-0.6,0.1-1.1,0.3-1.6c0.2-0.5,0.4-0.9,0.7-1.3c0.3-0.4,0.7-0.7,1.2-0.9s1-0.3,1.6-0.3
		c0.4,0,0.9,0.1,1.2,0.2c0.4,0.1,0.7,0.3,1,0.5c0.3,0.2,0.5,0.5,0.7,0.8c0.2,0.3,0.3,0.7,0.3,1.1H135z"/>
	<path class="st3" d="M137.6,13.3h5.6v1.2H139v2h3.9v1.1H139V20h4.3v1.2h-5.7V13.3z"/>
	<path class="st3" d="M145.4,18.5c0,0.3,0,0.6,0.2,0.8c0.1,0.2,0.2,0.4,0.4,0.5c0.2,0.1,0.4,0.2,0.6,0.3c0.2,0.1,0.5,0.1,0.8,0.1
		c0.3,0,0.6,0,0.8-0.1c0.2-0.1,0.4-0.2,0.5-0.3c0.1-0.1,0.2-0.2,0.3-0.4c0.1-0.1,0.1-0.3,0.1-0.4c0-0.3-0.1-0.5-0.2-0.7
		c-0.1-0.1-0.3-0.2-0.4-0.3c-0.3-0.1-0.6-0.2-1-0.3c-0.4-0.1-0.8-0.2-1.4-0.4c-0.3-0.1-0.6-0.2-0.8-0.3c-0.2-0.1-0.4-0.3-0.5-0.5
		c-0.1-0.2-0.2-0.4-0.3-0.6c-0.1-0.2-0.1-0.4-0.1-0.6c0-0.4,0.1-0.7,0.2-1c0.2-0.3,0.4-0.5,0.7-0.7c0.3-0.2,0.6-0.3,0.9-0.4
		c0.3-0.1,0.7-0.1,1-0.1c0.4,0,0.8,0.1,1.2,0.2c0.4,0.1,0.7,0.3,1,0.5c0.3,0.2,0.5,0.5,0.7,0.8c0.2,0.3,0.2,0.7,0.2,1.1h-1.4
		c0-0.5-0.2-0.9-0.5-1.1c-0.3-0.2-0.7-0.3-1.2-0.3c-0.2,0-0.3,0-0.5,0.1c-0.2,0-0.3,0.1-0.5,0.2c-0.1,0.1-0.3,0.2-0.3,0.3
		c-0.1,0.1-0.1,0.3-0.1,0.5c0,0.3,0.1,0.5,0.3,0.7c0.2,0.2,0.4,0.3,0.7,0.4c0,0,0.1,0,0.3,0.1c0.2,0.1,0.4,0.1,0.7,0.2
		c0.2,0.1,0.5,0.1,0.7,0.2c0.2,0.1,0.4,0.1,0.5,0.1c0.3,0.1,0.5,0.2,0.7,0.3c0.2,0.1,0.3,0.3,0.5,0.5c0.1,0.2,0.2,0.4,0.3,0.6
		c0.1,0.2,0.1,0.4,0.1,0.6c0,0.4-0.1,0.8-0.3,1.1c-0.2,0.3-0.4,0.6-0.7,0.8c-0.3,0.2-0.6,0.3-1,0.4c-0.4,0.1-0.8,0.1-1.1,0.1
		c-0.4,0-0.9-0.1-1.3-0.2c-0.4-0.1-0.7-0.3-1-0.5c-0.3-0.2-0.5-0.5-0.7-0.9c-0.2-0.4-0.3-0.8-0.3-1.3H145.4z"/>
	<path class="st3" d="M100.6,26.5h1.5l3,7.8h-1.5l-0.7-2.1h-3.1L99,34.3h-1.4L100.6,26.5z M100.1,31.2h2.4l-1.2-3.4h0L100.1,31.2z"
		/>
	<path class="st3" d="M106.7,31.7c0,0.3,0,0.6,0.2,0.8c0.1,0.2,0.2,0.4,0.4,0.5c0.2,0.1,0.4,0.2,0.6,0.3c0.2,0.1,0.5,0.1,0.8,0.1
		c0.3,0,0.6,0,0.8-0.1c0.2-0.1,0.4-0.2,0.5-0.3c0.1-0.1,0.2-0.2,0.3-0.4c0.1-0.1,0.1-0.3,0.1-0.4c0-0.3-0.1-0.5-0.2-0.7
		c-0.1-0.1-0.3-0.2-0.4-0.3c-0.3-0.1-0.6-0.2-1-0.3c-0.4-0.1-0.8-0.2-1.4-0.4c-0.3-0.1-0.6-0.2-0.8-0.3c-0.2-0.1-0.4-0.3-0.5-0.5
		c-0.1-0.2-0.2-0.4-0.3-0.6s-0.1-0.4-0.1-0.6c0-0.4,0.1-0.7,0.2-1c0.2-0.3,0.4-0.5,0.7-0.7c0.3-0.2,0.6-0.3,0.9-0.4
		c0.3-0.1,0.7-0.1,1-0.1c0.4,0,0.8,0.1,1.2,0.2c0.4,0.1,0.7,0.3,1,0.5s0.5,0.5,0.7,0.8c0.2,0.3,0.2,0.7,0.2,1.1h-1.4
		c0-0.5-0.2-0.9-0.5-1.1c-0.3-0.2-0.7-0.3-1.2-0.3c-0.2,0-0.3,0-0.5,0.1c-0.2,0-0.3,0.1-0.5,0.2c-0.1,0.1-0.3,0.2-0.3,0.3
		c-0.1,0.1-0.1,0.3-0.1,0.5c0,0.3,0.1,0.5,0.3,0.7c0.2,0.2,0.4,0.3,0.7,0.4c0,0,0.1,0,0.3,0.1c0.2,0.1,0.4,0.1,0.7,0.2
		c0.2,0.1,0.5,0.1,0.7,0.2c0.2,0.1,0.4,0.1,0.5,0.1c0.3,0.1,0.5,0.2,0.7,0.3c0.2,0.1,0.3,0.3,0.5,0.5c0.1,0.2,0.2,0.4,0.3,0.6
		c0.1,0.2,0.1,0.4,0.1,0.6c0,0.4-0.1,0.8-0.3,1.1c-0.2,0.3-0.4,0.6-0.7,0.8c-0.3,0.2-0.6,0.3-1,0.4c-0.4,0.1-0.8,0.1-1.1,0.1
		c-0.4,0-0.9-0.1-1.3-0.2c-0.4-0.1-0.7-0.3-1-0.5c-0.3-0.2-0.5-0.5-0.7-0.9c-0.2-0.4-0.3-0.8-0.3-1.3H106.7z"/>
	<path class="st3" d="M113.8,31.7c0,0.3,0,0.6,0.2,0.8c0.1,0.2,0.2,0.4,0.4,0.5c0.2,0.1,0.4,0.2,0.6,0.3c0.2,0.1,0.5,0.1,0.8,0.1
		c0.3,0,0.6,0,0.8-0.1c0.2-0.1,0.4-0.2,0.5-0.3c0.1-0.1,0.2-0.2,0.3-0.4c0.1-0.1,0.1-0.3,0.1-0.4c0-0.3-0.1-0.5-0.2-0.7
		c-0.1-0.1-0.3-0.2-0.4-0.3c-0.3-0.1-0.6-0.2-1-0.3c-0.4-0.1-0.8-0.2-1.4-0.4c-0.3-0.1-0.6-0.2-0.8-0.3c-0.2-0.1-0.4-0.3-0.5-0.5
		c-0.1-0.2-0.2-0.4-0.3-0.6c-0.1-0.2-0.1-0.4-0.1-0.6c0-0.4,0.1-0.7,0.2-1c0.2-0.3,0.4-0.5,0.7-0.7c0.3-0.2,0.6-0.3,0.9-0.4
		c0.3-0.1,0.7-0.1,1-0.1c0.4,0,0.8,0.1,1.2,0.2c0.4,0.1,0.7,0.3,1,0.5s0.5,0.5,0.7,0.8c0.2,0.3,0.2,0.7,0.2,1.1h-1.4
		c0-0.5-0.2-0.9-0.5-1.1c-0.3-0.2-0.7-0.3-1.2-0.3c-0.2,0-0.3,0-0.5,0.1c-0.2,0-0.3,0.1-0.5,0.2c-0.1,0.1-0.3,0.2-0.3,0.3
		c-0.1,0.1-0.1,0.3-0.1,0.5c0,0.3,0.1,0.5,0.3,0.7c0.2,0.2,0.4,0.3,0.7,0.4c0,0,0.1,0,0.3,0.1c0.2,0.1,0.4,0.1,0.7,0.2
		c0.2,0.1,0.5,0.1,0.7,0.2c0.2,0.1,0.4,0.1,0.5,0.1c0.3,0.1,0.5,0.2,0.7,0.3c0.2,0.1,0.3,0.3,0.5,0.5c0.1,0.2,0.2,0.4,0.3,0.6
		c0.1,0.2,0.1,0.4,0.1,0.6c0,0.4-0.1,0.8-0.3,1.1c-0.2,0.3-0.4,0.6-0.7,0.8c-0.3,0.2-0.6,0.3-1,0.4c-0.4,0.1-0.8,0.1-1.1,0.1
		c-0.4,0-0.9-0.1-1.3-0.2c-0.4-0.1-0.7-0.3-1-0.5c-0.3-0.2-0.5-0.5-0.7-0.9c-0.2-0.4-0.3-0.8-0.3-1.3H113.8z"/>
	<path class="st3" d="M120,26.5h1.4v7.8H120V26.5z"/>
	<path class="st3" d="M123.9,31.7c0,0.3,0,0.6,0.2,0.8c0.1,0.2,0.2,0.4,0.4,0.5c0.2,0.1,0.4,0.2,0.6,0.3c0.2,0.1,0.5,0.1,0.8,0.1
		c0.3,0,0.6,0,0.8-0.1c0.2-0.1,0.4-0.2,0.5-0.3c0.1-0.1,0.2-0.2,0.3-0.4c0.1-0.1,0.1-0.3,0.1-0.4c0-0.3-0.1-0.5-0.2-0.7
		c-0.1-0.1-0.3-0.2-0.4-0.3c-0.3-0.1-0.6-0.2-1-0.3c-0.4-0.1-0.8-0.2-1.4-0.4c-0.3-0.1-0.6-0.2-0.8-0.3c-0.2-0.1-0.4-0.3-0.5-0.5
		c-0.1-0.2-0.2-0.4-0.3-0.6c-0.1-0.2-0.1-0.4-0.1-0.6c0-0.4,0.1-0.7,0.2-1c0.2-0.3,0.4-0.5,0.7-0.7c0.3-0.2,0.6-0.3,0.9-0.4
		c0.3-0.1,0.7-0.1,1-0.1c0.4,0,0.8,0.1,1.2,0.2c0.4,0.1,0.7,0.3,1,0.5c0.3,0.2,0.5,0.5,0.7,0.8c0.2,0.3,0.2,0.7,0.2,1.1h-1.4
		c0-0.5-0.2-0.9-0.5-1.1c-0.3-0.2-0.7-0.3-1.2-0.3c-0.2,0-0.3,0-0.5,0.1c-0.2,0-0.3,0.1-0.5,0.2c-0.1,0.1-0.3,0.2-0.3,0.3
		c-0.1,0.1-0.1,0.3-0.1,0.5c0,0.3,0.1,0.5,0.3,0.7c0.2,0.2,0.4,0.3,0.7,0.4c0,0,0.1,0,0.3,0.1c0.2,0.1,0.4,0.1,0.7,0.2
		c0.2,0.1,0.5,0.1,0.7,0.2c0.2,0.1,0.4,0.1,0.5,0.1c0.3,0.1,0.5,0.2,0.7,0.3c0.2,0.1,0.3,0.3,0.5,0.5c0.1,0.2,0.2,0.4,0.3,0.6
		c0.1,0.2,0.1,0.4,0.1,0.6c0,0.4-0.1,0.8-0.3,1.1c-0.2,0.3-0.4,0.6-0.7,0.8c-0.3,0.2-0.6,0.3-1,0.4c-0.4,0.1-0.8,0.1-1.1,0.1
		c-0.4,0-0.9-0.1-1.3-0.2c-0.4-0.1-0.7-0.3-1-0.5c-0.3-0.2-0.5-0.5-0.7-0.9c-0.2-0.4-0.3-0.8-0.3-1.3H123.9z"/>
	<path class="st3" d="M129.4,26.5h6.3v1.2h-2.5v6.6h-1.4v-6.6h-2.5V26.5z"/>
	<path class="st3" d="M137.7,26.5h1.5l3,7.8h-1.5l-0.7-2.1h-3.1l-0.7,2.1h-1.4L137.7,26.5z M137.2,31.2h2.4l-1.2-3.4h0L137.2,31.2z"
		/>
	<path class="st3" d="M142.9,26.5h1.4l3.6,5.8h0v-5.8h1.3v7.8h-1.4l-3.6-5.8h0v5.8h-1.3V26.5z"/>
	<path class="st3" d="M150.1,26.5h6.3v1.2h-2.5v6.6h-1.4v-6.6h-2.5V26.5z"/>
</g>
</svg>
