<?xml version="1.0" encoding="utf-8"?>
<!-- Generator: Adobe Illustrator 20.0.0, SVG Export Plug-In . SVG Version: 6.00 Build 0)  -->
<svg version="1.1" id="Layer_1" xmlns="http://www.w3.org/2000/svg" xmlns:xlink="http://www.w3.org/1999/xlink" x="0px" y="0px"
	 viewBox="0 0 165 90" style="enable-background:new 0 0 165 90;" xml:space="preserve">
<style type="text/css">
	.st0{fill:url(#SVGID_1_);}
	.st1{fill:url(#SVGID_2_);}
</style>
<g>
	
		<linearGradient id="SVGID_1_" gradientUnits="userSpaceOnUse" x1="101.625" y1="23.4687" x2="101.625" y2="78.8281" gradientTransform="matrix(-1 0 0 1 206 0)">
		<stop  offset="0" style="stop-color:#808080"/>
		<stop  offset="1" style="stop-color:#333333"/>
	</linearGradient>
	<path class="st0" d="M69.8,47.3c0,13.1,15.5,23.8,34.6,23.8c2.9,0,5.7-0.2,8.4-0.7c0,0,11.9,7.2,16.3,8.4l-8.7-10.4
		c11.1-4,18.6-11.9,18.6-21.1c0-13.1-15.5-23.8-34.6-23.8S69.8,34.1,69.8,47.3z"/>
</g>
<g>
	<linearGradient id="SVGID_2_" gradientUnits="userSpaceOnUse" x1="70.25" y1="7.4843" x2="70.25" y2="71.1719">
		<stop  offset="0" style="stop-color:#F7931E"/>
		<stop  offset="1" style="stop-color:#F15A24"/>
	</linearGradient>
	<path class="st1" d="M110.3,35c0,15.2-17.9,27.5-40,27.5c-3.3,0-6.6-0.3-9.7-0.8c0,0-13,8.1-18.1,9.5l9.3-11.8
		C39,54.8,30.3,45.6,30.3,35c0-15.2,17.9-27.5,40-27.5S110.3,19.8,110.3,35z"/>
</g>
</svg>
