<?xml version="1.0" encoding="utf-8"?>
<!-- Generator: Adobe Illustrator 19.1.0, SVG Export Plug-In . SVG Version: 6.00 Build 0)  -->
<svg version="1.1" id="Layer_1" xmlns="http://www.w3.org/2000/svg" xmlns:xlink="http://www.w3.org/1999/xlink" x="0px" y="0px"
	 viewBox="0 0 35 38" style="enable-background:new 0 0 35 38;" xml:space="preserve">
<style type="text/css">
	.st0{fill:#FFD800;}
</style>
<g>
	<path class="st0" d="M14.4,18.5c-2.8,0-5.1,2.3-5.1,5.1s2.3,5.1,5.1,5.1c2.8,0,5.1-2.3,5.1-5.1C19.5,20.8,17.2,18.5,14.4,18.5
		L14.4,18.5z M14.4,26.9c-1.8,0-3.3-1.5-3.3-3.3c0-1.8,1.5-3.3,3.3-3.3c1.8,0,3.2,1.5,3.2,3.3C17.7,25.4,16.2,26.9,14.4,26.9
		L14.4,26.9z M14.4,26.9"/>
	<path class="st0" d="M30.7,0H19.2C16.9,0,15,1.9,15,4.2v5.1h-2.5c-0.5,0-0.9,0.4-0.9,0.9v1.6c-1.2,0.3-2.4,0.8-3.4,1.4L7,12.2
		c-0.4-0.4-1-0.4-1.3,0l-2.7,2.7c-0.2,0.2-0.3,0.4-0.3,0.7c0,0.2,0.1,0.5,0.3,0.7l1.2,1.2c-0.7,1.1-1.1,2.2-1.4,3.5H1
		c-0.5,0-0.9,0.4-0.9,0.9v3.8c0,0.5,0.4,0.9,0.9,0.9h1.6C3,27.7,3.4,28.9,4.1,30l-1.2,1.2c-0.4,0.4-0.4,1,0,1.3l2.7,2.7
		c0.4,0.4,1,0.4,1.3,0L8.1,34c1.1,0.7,2.2,1.1,3.4,1.4v1.6c0,0.5,0.4,0.9,0.9,0.9h3.8c0.5,0,0.9-0.4,0.9-0.9v-1.6
		c1.2-0.3,2.4-0.8,3.4-1.4l1.2,1.2c0.4,0.4,1,0.4,1.3,0l2.7-2.7c0.2-0.2,0.3-0.4,0.3-0.7c0-0.2-0.1-0.5-0.3-0.7L24.8,30
		c0.7-1.1,1.1-2.2,1.4-3.5h1.6c0.5,0,0.9-0.4,0.9-0.9v-3.8c0-0.5-0.4-0.9-0.9-0.9h-1.6c-0.1-0.4-0.2-0.9-0.4-1.3l1.8-1.3h3.2
		c2.3,0,4.2-1.9,4.2-4.2V4.2C35,1.9,33.1,0,30.7,0L30.7,0z M24.5,21.9c0.1,0.5,0.5,0.8,0.9,0.8h1.5v2h-1.5c-0.5,0-0.8,0.3-0.9,0.8
		c-0.3,1.5-0.8,2.9-1.7,4.1c-0.3,0.4-0.2,0.9,0.1,1.2l1,1l-1.4,1.4l-1-1c-0.3-0.3-0.8-0.4-1.2-0.1c-1.2,0.9-2.6,1.5-4.1,1.7
		c-0.4,0.1-0.8,0.5-0.8,0.9v1.5h-2v-1.5c0-0.5-0.3-0.8-0.8-0.9c-1.5-0.3-2.9-0.8-4.1-1.7c-0.4-0.3-0.9-0.2-1.2,0.1l-1,1l-1.4-1.4
		l1-1c0.3-0.3,0.4-0.8,0.1-1.2c-0.9-1.2-1.5-2.6-1.7-4.1c-0.1-0.5-0.5-0.8-0.9-0.8H2v-2h1.5c0.5,0,0.8-0.3,0.9-0.8
		c0.3-1.5,0.8-2.9,1.7-4.1c0.3-0.4,0.2-0.9-0.1-1.2l-1-1l1.4-1.4l1,1c0.3,0.3,0.8,0.4,1.2,0.1c1.2-0.9,2.6-1.5,4.1-1.7
		c0.5-0.1,0.8-0.5,0.8-0.9v-1.5H15V14c0,2.3,1.9,4.2,4.2,4.2h0.9v3.5c0,0.4,0.2,0.7,0.5,0.8c0.1,0.1,0.3,0.1,0.4,0.1
		c0.2,0,0.4-0.1,0.5-0.2l2.6-1.9C24.3,21.1,24.4,21.5,24.5,21.9L24.5,21.9z M33.1,14c0,1.3-1.1,2.4-2.4,2.4h-3.5
		c-0.2,0-0.4,0.1-0.5,0.2L22,19.9v-2.6c0-0.5-0.4-0.9-0.9-0.9h-1.9c-1.3,0-2.4-1.1-2.4-2.4V4.2c0-1.3,1.1-2.4,2.4-2.4h11.6
		c1.3,0,2.4,1.1,2.4,2.4V14z M33.1,14"/>
</g>
<path class="st0" d="M24.9,3.1c-2.2,0-3.9,1.8-3.9,3.9c0,0.5,0.4,0.9,0.9,0.9c0.5,0,0.9-0.4,0.9-0.9c0-1.1,0.9-2,2-2
	c1.1,0,2,0.9,2,2c0,1.1-1.5,2.6-2.4,3.5c-0.1,0.1-0.2,0.2-0.3,0.3c-0.4,0.4-0.4,1,0,1.3c0.2,0.2,0.4,0.3,0.7,0.3
	c0.2,0,0.5-0.1,0.7-0.3c0.1-0.1,0.2-0.2,0.3-0.3c1.3-1.2,3-3,3-4.9C28.8,4.8,27,3.1,24.9,3.1L24.9,3.1z M24.9,3.1"/>
<path class="st0" d="M24.6,13.2c-0.3,0-0.6,0.1-0.8,0.3c-0.2,0.2-0.3,0.5-0.3,0.8c0,0.3,0.1,0.6,0.3,0.8c0.2,0.2,0.5,0.3,0.8,0.3
	c0.3,0,0.6-0.1,0.8-0.3c0.2-0.2,0.3-0.5,0.3-0.8c0-0.3-0.1-0.6-0.3-0.8C25.2,13.3,24.9,13.2,24.6,13.2L24.6,13.2z M24.6,13.2"/>
</svg>
