<?xml version="1.0" encoding="utf-8"?>
<!-- Generator: Adobe Illustrator 19.1.0, SVG Export Plug-In . SVG Version: 6.00 Build 0)  -->
<svg version="1.1" id="Layer_1" xmlns="http://www.w3.org/2000/svg" xmlns:xlink="http://www.w3.org/1999/xlink" x="0px" y="0px"
	 viewBox="0 0 292.4 121.1" style="enable-background:new 0 0 292.4 121.1;" xml:space="preserve">
<style type="text/css">
	.st0{fill:#383838;}
	.st1{fill:#F28900;}
	.st2{fill:#00AFF0;}
	.st3{fill:#212121;}
	.st4{fill:#00964C;}
	.st5{fill:#009296;}
	.st6{fill:#2E59A0;}
	.st7{fill:#802654;}
	.st8{fill:#7CB82F;}
</style>
<path class="st0" d="M133.2,89.3V31.3c0-1.2,0.6-2.1,1.7-2.7c1.1-0.6,2.5-0.9,4.1-0.9s3,0.3,4.1,0.9c1.1,0.6,1.7,1.5,1.7,2.7v57.9
	c0,1.1-0.6,2-1.7,2.7c-1.2,0.7-2.5,1-4.1,1c-1.6,0-3-0.3-4.1-1C133.7,91.3,133.2,90.4,133.2,89.3z"/>
<path class="st0" d="M163.9,89.3V31.3c0-0.9,0.4-1.8,1.1-2.5c0.7-0.7,1.6-1.1,2.7-1.1h17.6c14.1,0,21.1,6.2,21.1,18.6
	c0,4.9-1.1,8.8-3.2,11.8c-2.1,3-4.9,5-8.5,6.1l11.7,21.7c0.3,0.4,0.4,0.8,0.4,1.4c0,1.5-0.8,2.9-2.3,4.1c-1.5,1.3-3.2,1.9-4.9,1.9
	c-1.7,0-3.1-0.9-4-2.8L182.9,66h-7.5v23.3c0,1.1-0.6,2-1.7,2.7c-1.1,0.7-2.5,1-4.1,1c-1.5,0-2.9-0.3-4.1-1
	C164.5,91.3,163.9,90.4,163.9,89.3z M175.5,56.9h9.8c6.4,0,9.5-3.1,9.5-9.4c0-6.4-3.2-9.5-9.5-9.5h-9.8V56.9z"/>
<path class="st0" d="M223.1,89.3V31.3c0-1.2,0.6-2.1,1.7-2.7c1.1-0.6,2.5-0.9,4.1-0.9s3,0.3,4.1,0.9c1.1,0.6,1.7,1.5,1.7,2.7v57.9
	c0,1.1-0.6,2-1.7,2.7c-1.2,0.7-2.5,1-4.1,1c-1.6,0-3-0.3-4.1-1C223.7,91.3,223.1,90.4,223.1,89.3z"/>
<path class="st0" d="M250.6,82.7c0-1.4,0.5-2.7,1.6-4.1c1-1.4,2.2-2.1,3.5-2.1c0.8,0,1.6,0.4,2.6,1.1c1,0.7,1.9,1.6,2.9,2.5
	c0.9,0.9,2.2,1.7,4,2.5c1.7,0.7,3.6,1.1,5.7,1.1c2.9,0,5.2-0.7,7.1-2c1.9-1.3,2.9-3.2,2.9-5.8c0-1.8-0.5-3.4-1.6-4.8
	c-1-1.4-2.4-2.6-4.1-3.5c-1.7-0.9-3.5-1.8-5.6-2.7c-2-0.9-4.1-1.8-6.1-2.9c-2-1.1-3.9-2.3-5.6-3.6c-1.7-1.3-3.1-3.1-4.1-5.3
	c-1-2.2-1.6-4.8-1.6-7.6c0-3.2,0.6-6,1.9-8.5c1.3-2.4,3-4.3,5.1-5.7c2.1-1.4,4.4-2.4,6.9-3c2.4-0.6,5-0.9,7.8-0.9
	c1.5,0,3.2,0.1,4.9,0.3c1.7,0.2,3.5,0.6,5.5,1.1c1.9,0.5,3.5,1.3,4.7,2.3c1.2,1,1.8,2.3,1.8,3.7c0,1.3-0.4,2.7-1.2,4.1
	c-0.8,1.4-2,2.1-3.4,2.1c-0.5,0-2-0.6-4.4-1.7c-2.4-1.1-5-1.7-7.9-1.7c-3.2,0-5.7,0.6-7.4,1.8c-1.8,1.2-2.6,2.9-2.6,5
	c0,1.7,0.7,3.2,2.1,4.5c1.4,1.3,3.2,2.3,5.3,3.1c2.1,0.8,4.4,1.8,6.9,3c2.5,1.2,4.8,2.5,6.9,4c2.1,1.4,3.9,3.5,5.3,6.2
	c1.4,2.7,2.1,5.9,2.1,9.5c0,6.1-1.9,10.8-5.8,14.1c-3.9,3.3-9,5-15.4,5c-5.6,0-10.5-1.2-14.5-3.5C252.6,87.9,250.6,85.4,250.6,82.7z
	"/>
<g>
	<circle class="st1" cx="54.6" cy="60.7" r="7.9"/>
	<circle class="st2" cx="54.7" cy="7.9" r="7.9"/>
	<path class="st3" d="M68.6,60.5c0-0.1,0-0.1,0-0.2c0-0.1,0-0.1,0-0.2c-0.1-3-1.1-5.7-2.8-7.9c0,0,0,0,0-0.1
		c-0.2-0.2-0.6-0.5-0.8-0.7c-1.6-1.9-3.2-3.3-6.2-4V23.3c0-2.3-1.7-4.2-4-4.2c-2.3,0-4,1.9-4,4.2v24.1c0,0.2-1,0.4-1.5,0.6
		c0,0-0.1,0-0.1,0c-0.2,0.1-0.4,0.2-0.5,0.2c-3.9,1.9-6.8,5.6-7.5,9.9C41,58.8,41,59.4,40.9,60c0,0.2,0,0.3,0,0.5c0,0.1,0,0.1,0,0.2
		c0,0.1,0,0.1,0,0.2c0.1,3,1.1,5.7,2.8,7.9c0,0,0,0,0,0.1c0.2,0.2,0.6,0.5,0.8,0.7c1.6,1.9,4.2,3.3,6.2,4v24.2
		c0,2.3,1.6,4.2,3.9,4.2h0c2.3,0,4.1-1.9,4.1-4.2V73.7c0-0.2,1-0.4,1.5-0.6c0,0,0.1,0,0.1,0c0.2-0.1,0.4-0.2,0.5-0.2
		c3.9-1.9,6.8-5.6,7.5-9.9c0.1-0.6,0.2-1.3,0.2-1.9C68.6,60.9,68.6,60.7,68.6,60.5z"/>
	<circle class="st1" cx="54.8" cy="60.2" r="8.1"/>
	<circle class="st4" cx="54.7" cy="113.2" r="7.9"/>
	<circle class="st5" cx="20" cy="97" r="7.9"/>
	<circle class="st6" cx="88.5" cy="97" r="7.9"/>
	<circle class="st7" cx="20" cy="25.4" r="7.9"/>
	<circle class="st8" cx="88.5" cy="25.4" r="7.9"/>
	<g>
		<path class="st3" d="M41.4,42.6c1.9-1.4,4.4-2.5,6.4-3.2v-12c-6,1-11,3-16,5.5L41.4,42.6z"/>
		<path class="st3" d="M36.2,74.4c-2.7-3.8-4.3-8.4-4.3-13.3c0-5.1,1.7-9.8,4.5-13.6l-11-11C14.3,43.5,5.5,52.8,1,58.1
			c-1.3,1.6-1.3,3.9,0,5.4c4.5,5.3,13.3,14.5,24.4,21.6L36.2,74.4z"/>
		<path class="st3" d="M31.7,88.7c5,2.6,10.1,4.6,16.1,5.5V82.7c-2-0.8-4.6-2-6.6-3.4L31.7,88.7z"/>
	</g>
	<g>
		<path class="st3" d="M77.6,32.8c-4.9-2.5-9.8-4.5-15.8-5.4v12.1c3,0.7,4.2,1.8,6,3.1L77.6,32.8z"/>
		<path class="st3" d="M108.4,58.1c-4.6-5.3-13.3-14.6-24.5-21.7L72.8,47.5c2.8,3.8,4.4,8.5,4.4,13.6c0,4.9-1.5,9.5-4.2,13.3
			l10.9,10.9c11.2-7.1,19.9-16.4,24.5-21.7C109.7,61.9,109.7,59.7,108.4,58.1z"/>
		<path class="st3" d="M68.1,79.3c-1.8,1.4-3.3,2.5-6.3,3.3v11.7c6-1,10.8-2.9,15.8-5.5L68.1,79.3z"/>
	</g>
</g>
</svg>
