<?xml version="1.0" encoding="utf-8"?>
<!-- Generator: Adobe Illustrator 19.1.0, SVG Export Plug-In . SVG Version: 6.00 Build 0)  -->
<svg version="1.1" id="Layer_1" xmlns="http://www.w3.org/2000/svg" xmlns:xlink="http://www.w3.org/1999/xlink" x="0px" y="0px"
	 viewBox="0 0 62.8 34.7" style="enable-background:new 0 0 62.8 34.7;" xml:space="preserve">
<style type="text/css">
	.st0{fill:#FF931E;}
	.st1{fill:#3FA9F5;}
</style>
<g>
	<rect y="21.9" class="st0" width="4" height="12"/>
</g>
<g>
	<rect y="18.9" class="st0" width="5" height="2"/>
</g>
<g>
	<path class="st1" d="M19.9,33.9H5v-3h11.9l0.2-14H0.3l0-7.4c0-2.7,1.2-5.1,3.4-6.9C5.5,0.9,7.9,0,10.1,0c2.3,0,4.7,0.1,6.5,1.6
		c2.2,1.8,3.4,4.3,3.4,6.3h-3.1c0-3-4-5.6-6.9-5.6c-2.8,0-6.8,2.9-6.8,6.8l0,4.8h16.8L19.9,33.9z"/>
</g>
<g>
	<path d="M24.9,13.7h5.7c0.6,0,2,0.3,2,1.5v18c0,1.2-0.8,1.6-0.8,1.6h-8c0,0-0.9-0.3-0.9-1.6v-18C22.9,13.9,24.4,13.7,24.9,13.7z
		 M30,16.6h-4.4c-0.2,0-0.3,0.1-0.4,0.4l0,14.4c0.1,0.3,0.3,0.4,0.4,0.4H30c0.2,0,0.3-0.1,0.4-0.4l0-14.4
		C30.3,16.8,30.2,16.6,30,16.6z"/>
</g>
<g>
	<path d="M35.7,34.7V4.2h2.4v30.5H35.7z"/>
</g>
<g>
	<path d="M44.6,34.7l-4.5-21.3h2.4l3.6,18.8l3.2-18.8h2.4l-4.2,21.3H44.6z"/>
</g>
<g>
	<path d="M60.8,13.7c0.6,0,1,0.4,1.4,1.3c0.4,0.9,0.6,1.9,0.6,3.1v7.6l-7.8,0v4.7c0,0.4,0.1,0.9,0.2,1.1c0.1,0.3,0.3,0.4,0.4,0.4
		l7.1,0v2.9h-7.7c-0.5,0-1-0.4-1.4-1.3c-0.4-0.9-0.6-1.9-0.6-3.1V18.1c0-1.2,0.2-2.2,0.6-3.1c0.4-0.9,0.9-1.3,1.4-1.3H60.8z
		 M55.1,23.2l5.8,0v-5.2c0-0.4,0-1.1-0.1-1.4c-0.1-0.3-0.6-0.5-0.8-0.5l-4.2,0c-0.2,0-0.3,0.1-0.4,0.4c-0.1,0.3-0.2,1-0.2,1.4V23.2z
		"/>
</g>
</svg>
