<?xml version="1.0" encoding="utf-8"?>
<!-- Generator: Adobe Illustrator 19.1.0, SVG Export Plug-In . SVG Version: 6.00 Build 0)  -->
<svg version="1.1" id="Layer_1" xmlns="http://www.w3.org/2000/svg" xmlns:xlink="http://www.w3.org/1999/xlink" x="0px" y="0px"
	 viewBox="0 0 94.6 68.7" style="enable-background:new 0 0 94.6 68.7;" xml:space="preserve">
<style type="text/css">
	.st0{fill:#00A99D;}
	.st1{fill:#FF931E;}
	.st2{fill:#FFFFFF;}
</style>
<g>
	<path class="st0" d="M84.6,68.7h4.3c0,0-6.4-11.6-7.1-15.8c-0.6-3.8-1.6-9.8,1.6-13.5c3.6-4.1,9.1-9.3,11.1-18.3
		c-0.3-0.5-1.1-1.3-1.8-2c-2.3,6.3-6.9,14.6-13.7,16.5c-7.7,1.7-8.4-1.2-14.1-1.6c-1.2,0-7.5-0.9-12.3,4.5c0,0,0.1,2.8,0.1,3.5
		c3-2.8,7.8-5.3,11-0.8c1.8,2.5,2.6,7-1.2,10.8c-3.9,3.9-17.7,14.8-20.7,16.8h7.2c1.9-2,15.7-10.8,22.3-11.8
		C74.7,56.4,79.3,58.7,84.6,68.7z"/>
	<ellipse class="st0" cx="73.9" cy="26.7" rx="6.1" ry="6.9"/>
	<path class="st1" d="M41.9,68.7c-2.4-11-4.4-25.4,0-29.4c2.2-2,7.5-2.2,10.9,2.7c0-1.6,0-2.3-0.1-3.6c-2.8-8.8-10-17-25.3-23.3
		C9.5,19.9,0.6,32.1,0,40c0,0,7.4-3.5,12.6,0.8c0,2.4,0.1,27.9,0.1,27.9H17l0.1-21h9.3l-0.1,21H41.9z"/>
	<ellipse class="st1" cx="32.5" cy="7.5" rx="6.1" ry="7.5"/>
	<rect x="29.8" y="47.7" class="st2" width="2" height="3"/>
	<rect x="32.8" y="47.7" class="st2" width="3" height="3"/>
	<rect x="29.8" y="51.7" class="st2" width="2" height="3"/>
	<rect x="32.8" y="51.7" class="st2" width="3" height="3"/>
</g>
</svg>
