<?xml version="1.0" encoding="utf-8"?>
<!-- Generator: Adobe Illustrator 19.1.0, SVG Export Plug-In . SVG Version: 6.00 Build 0)  -->
<svg version="1.1" id="Layer_1" xmlns="http://www.w3.org/2000/svg" xmlns:xlink="http://www.w3.org/1999/xlink" x="0px" y="0px"
	 viewBox="0 0 30.3 34.6" style="enable-background:new 0 0 30.3 34.6;" xml:space="preserve">
<style type="text/css">
	.st0{fill:#483737;}
	.st1{fill:#AC9393;}
	.st2{fill:#FFFFFF;}
	.st3{fill:url(#path4196_1_);}
	.st4{fill:url(#path4211_2_);}
	.st5{opacity:0.34;clip-path:url(#path4211_3_);fill:#FFFFFF;}
	.st6{fill:#241C1C;}
	.st7{fill:#FF7F2A;}
	.st8{fill:#AA4400;}
	.st9{font-family:'Roboto-Bold';}
	.st10{font-size:9.6792px;}
</style>
<g id="layer1" transform="translate(0,-988.36216)">
	<circle id="path4148-8" class="st0" cx="12.1" cy="994.3" r="5.2"/>
	<circle id="path4148-8-3" class="st1" cx="12.1" cy="994.2" r="3.7"/>
	<path id="path4196-7" class="st2" d="M0.2,1021.4
		c0,1.8,23.5,2.2,23.5,0l0.1-31.1c0-2.9-23.7-2.6-23.7,0.2c0,1.5,0,4.8,0,4.8c0,1.5,8.2,1.5,8.2,0c-0.1-6.7,7.9-6.1,7.6-0.4
		c-0.1,1.8-1.9,4.4-5.3,5.1c-3.5,0.7-10.4,3.2-10.5,5.2C0,1009.4,0.2,1021.4,0.2,1021.4L0.2,1021.4z"/>
	
		<linearGradient id="path4196_1_" gradientUnits="userSpaceOnUse" x1="11.5883" y1="2.7016" x2="13.1527" y2="87.3743" gradientTransform="matrix(1 0 0 -1 0 1023.9456)">
		<stop  offset="0" style="stop-color:#00AAD4"/>
		<stop  offset="1" style="stop-color:#00AAD4;stop-opacity:0"/>
	</linearGradient>
	<path id="path4196" class="st3" d="M0.2,1021.4
		c0,1.8,23.5,2.2,23.5,0l0.1-31.1c0-2.9-23.7-2.6-23.7,0.2c0,1.5,0,4.8,0,4.8c0,1.5,8.2,1.5,8.2,0c-0.1-6.7,7.9-6.1,7.6-0.4
		c-0.1,1.8-1.9,4.4-5.3,5.1c-3.5,0.7-10.4,3.2-10.5,5.2C0,1009.4,0.2,1021.4,0.2,1021.4L0.2,1021.4z"/>
	<path id="path4211-0" class="st2" d="M11.5,992.1c-0.8,0-1.4,0.9-1.4,2c0,1.1,0.6,2,1.4,2
		c0,0,0,0,0,0h16.7c0.8,0,1.4-0.9,1.4-2c0-1.1-0.6-2-1.4-2c0,0,0,0,0,0H11.5z"/>
	<linearGradient id="path4211_2_" gradientUnits="userSpaceOnUse" x1="10.1127" y1="994.1048" x2="29.7166" y2="994.1048">
		<stop  offset="0" style="stop-color:#483737"/>
		<stop  offset="1" style="stop-color:#483737"/>
	</linearGradient>
	<path id="path4211" class="st4" d="M11.5,992.1c-0.8,0-1.4,0.9-1.4,2c0,1.1,0.6,2,1.4,2
		c0,0,0,0,0,0h16.7c0.8,0,1.4-0.9,1.4-2c0-1.1-0.6-2-1.4-2c0,0,0,0,0,0H11.5z"/>
	<g>
		<defs>
			<path id="path4211_1_" d="M11.5,992.1c-0.8,0-1.4,0.9-1.4,2c0,1.1,0.6,2,1.4,2c0,0,0,0,0,0
				h16.7c0.8,0,1.4-0.9,1.4-2c0-1.1-0.6-2-1.4-2c0,0,0,0,0,0H11.5z"/>
		</defs>
		<clipPath id="path4211_3_">
			<use xlink:href="#path4211_1_"  style="overflow:visible;"/>
		</clipPath>
		<rect x="9.8" y="991.5" class="st5" width="20.5" height="1.7"/>
	</g>
	<rect id="rect4227" x="11.2" y="995.6" class="st6" width="17.3" height="0.3"/>
	<rect id="rect5099" x="2.9" y="1010.4" class="st2" width="18" height="10"/>
	<rect id="rect5101" x="2.9" y="1005.1" class="st7" width="18" height="5.3"/>
	<text transform="matrix(1 0 0 1 6.1959 1018.6041)" class="st8 st9 st10">30</text>
</g>
</svg>
