<?xml version="1.0" encoding="utf-8"?>
<!-- Generator: Adobe Illustrator 19.1.0, SVG Export Plug-In . SVG Version: 6.00 Build 0)  -->
<svg version="1.1" id="Layer_1" xmlns="http://www.w3.org/2000/svg" xmlns:xlink="http://www.w3.org/1999/xlink" x="0px" y="0px"
	 viewBox="46 -0.2 126 36.2" style="enable-background:new 46 -0.2 126 36.2;" xml:space="preserve">
<style type="text/css">
	.st0{fill:#EF8823;}
	.st1{fill:#444444;}
	.st2{enable-background:new    ;}
	.st3{fill:#7F7F7F;}
</style>
<path class="st0" d="M53.5,17c-1.3,0-2.4-0.2-3.3-0.5c-0.9-0.4-1.7-0.8-2.4-1.4c-0.6-0.6-1.1-1.3-1.4-2.2C46.2,12,46,11.1,46,10.1
	V0.3h5.5v9.3c0,0.8,0.2,1.4,0.6,1.8c0.4,0.4,0.9,0.7,1.6,0.7s1.2-0.2,1.6-0.7c0.4-0.4,0.6-1,0.6-1.8V0.3h5.4v9.9
	c0,1-0.2,1.9-0.5,2.7c-0.3,0.8-0.8,1.6-1.5,2.2c-0.6,0.6-1.4,1.1-2.4,1.4C55.9,16.8,54.8,17,53.5,17z"/>
<path class="st0" d="M64.5,0.3H70l4.6,8.3h0.1l-0.2-8.3h5.2v16.3h-5.6l-4.5-7.8h-0.1l0.2,7.8h-5.2V0.3z"/>
<path class="st0" d="M82.4,8.3c0-1.3,0.2-2.5,0.7-3.5s1.1-1.9,1.9-2.7c0.8-0.7,1.8-1.3,2.9-1.7C89,0,90.2-0.2,91.4-0.2
	S93.9,0,95,0.4s2.1,1,2.9,1.7c0.8,0.7,1.5,1.6,1.9,2.7c0.5,1,0.7,2.2,0.7,3.5s-0.2,2.5-0.7,3.6s-1.1,2-1.9,2.7
	c-0.8,0.8-1.8,1.3-2.9,1.8c-1.1,0.4-2.3,0.6-3.6,0.6c-1.3,0-2.4-0.2-3.5-0.6s-2.1-1-2.9-1.8s-1.4-1.7-1.9-2.7
	C82.6,10.8,82.4,9.6,82.4,8.3z M88.7,8.3c0,0.5,0.1,0.9,0.2,1.3c0.1,0.4,0.3,0.7,0.6,1c0.2,0.3,0.5,0.5,0.9,0.6
	c0.3,0.2,0.7,0.2,1.1,0.2c0.4,0,0.8-0.1,1.1-0.2c0.3-0.2,0.6-0.4,0.9-0.6c0.3-0.3,0.4-0.6,0.6-1c0.1-0.4,0.2-0.8,0.2-1.3
	s-0.1-0.9-0.2-1.2c-0.1-0.4-0.3-0.7-0.6-1S93,5.6,92.6,5.5c-0.3-0.1-0.7-0.2-1.1-0.2c-0.4,0-0.8,0.1-1.1,0.2s-0.6,0.3-0.9,0.6
	c-0.2,0.3-0.4,0.6-0.6,1C88.7,7.5,88.7,7.9,88.7,8.3z"/>
<g>
	<path class="st1" d="M103.4,0.7h4.6c0.8,0,1.6,0.1,2.3,0.3c0.7,0.2,1.3,0.4,1.7,0.8c0.5,0.4,0.9,0.8,1.1,1.4
		c0.3,0.5,0.4,1.2,0.4,1.9s-0.1,1.4-0.4,1.9s-0.6,1-1.1,1.4s-1.1,0.6-1.7,0.8c-0.7,0.2-1.4,0.3-2.3,0.3h-3v7.6h-1.7L103.4,0.7
		L103.4,0.7z M105,8h2.8c1.3,0,2.3-0.3,3-0.8s1-1.2,1-2.2s-0.3-1.8-1-2.2c-0.7-0.5-1.7-0.7-2.9-0.7H105V8z"/>
	<path class="st1" d="M118.8,15.5h8.7V17h-10.4V0.7h10.1v1.5h-8.4v5.6h7.9v1.5h-7.9C118.8,9.3,118.8,15.5,118.8,15.5z"/>
	<path class="st1" d="M131.2,0.7h5.4c1,0,2,0.2,3,0.5s1.9,0.8,2.8,1.5c0.8,0.7,1.5,1.5,2,2.6c0.5,1,0.8,2.2,0.8,3.6
		s-0.3,2.6-0.8,3.6s-1.2,1.9-2,2.5c-0.8,0.7-1.7,1.2-2.8,1.5c-1,0.3-2,0.5-3,0.5h-5.4V0.7z M132.9,15.5h3.3c1.2,0,2.3-0.2,3.2-0.6
		c0.9-0.4,1.7-0.9,2.3-1.5c0.6-0.6,1-1.3,1.3-2.1c0.3-0.8,0.4-1.6,0.4-2.5c0-0.8-0.1-1.7-0.4-2.5c-0.3-0.8-0.7-1.5-1.3-2.1
		s-1.4-1.1-2.3-1.4c-0.9-0.4-2-0.6-3.2-0.6h-3.3V15.5z"/>
	<path class="st1" d="M150.7,17H149V0.7h1.7V17z"/>
	<path class="st1" d="M155.4,17h-1.8l7-16.3h1.6l7,16.3h-1.8l-1.8-4.3h-8.4L155.4,17z M157.8,11.2h7.2l-3.6-8.6L157.8,11.2z"/>
</g>
<g class="st2">
	<path class="st3" d="M108.9,31.6l3.7-9.6h1.4l3.9,9.6h-1.4l-1.1-2.9h-4l-1,2.9H108.9z M111.7,27.7h3.2l-1-2.6
		c-0.3-0.8-0.5-1.5-0.7-2c-0.1,0.6-0.3,1.2-0.5,1.8L111.7,27.7z"/>
	<path class="st3" d="M122.8,31.6v-9.6h1.3v8.4h4.7v1.1H122.8z"/>
	<path class="st3" d="M134.3,31.6v-9.6h3.6c0.6,0,1.1,0,1.5,0.1c0.5,0.1,0.9,0.2,1.2,0.4s0.6,0.5,0.8,0.9s0.3,0.8,0.3,1.3
		c0,0.8-0.3,1.5-0.8,2.1c-0.5,0.6-1.5,0.8-2.8,0.8h-2.5v3.9H134.3z M135.6,26.6h2.5c0.8,0,1.4-0.2,1.7-0.5c0.3-0.3,0.5-0.7,0.5-1.3
		c0-0.4-0.1-0.7-0.3-1c-0.2-0.3-0.5-0.5-0.8-0.6c-0.2-0.1-0.6-0.1-1.2-0.1h-2.4V26.6z"/>
	<path class="st3" d="M147.2,31.6v-9.6h1.3V26h5v-3.9h1.3v9.6h-1.3v-4.5h-5v4.5H147.2z"/>
	<path class="st3" d="M159.8,31.6l3.7-9.6h1.4l3.9,9.6h-1.4l-1.1-2.9h-4l-1.1,2.9H159.8z M162.6,27.7h3.2l-1-2.6
		c-0.3-0.8-0.5-1.5-0.7-2c-0.1,0.6-0.3,1.2-0.5,1.8L162.6,27.7z"/>
</g>
</svg>
