<?xml version="1.0" encoding="utf-8"?>
<!-- Generator: Adobe Illustrator 19.1.0, SVG Export Plug-In . SVG Version: 6.00 Build 0)  -->
<svg version="1.1" xmlns="http://www.w3.org/2000/svg" xmlns:xlink="http://www.w3.org/1999/xlink" x="0px" y="0px"
	 viewBox="0 0 57.8 34" style="enable-background:new 0 0 57.8 34;" xml:space="preserve">
<style type="text/css">
	.st0{fill:#6AA342;}
	.st1{fill:#F28900;}
</style>
<g id="Layer_1">
	<g>
		<path class="st0" d="M8.2,24.4L13,13.3h3.2L9.9,27.9H6.6L0.1,13.3h3.2L8.2,24.4z"/>
		<path class="st0" d="M14.1,22.6c0-0.8,0.1-1.5,0.4-2.1c0.3-0.7,0.7-1.2,1.2-1.7c0.5-0.5,1.2-0.9,2-1.2c0.8-0.3,1.7-0.4,2.8-0.4
			c1,0,2,0.1,2.8,0.4c0.8,0.3,1.5,0.7,2.1,1.2c0.6,0.5,1,1.1,1.3,1.7c0.3,0.7,0.4,1.4,0.4,2.1c0,0.8-0.1,1.5-0.4,2.1
			c-0.3,0.7-0.7,1.2-1.3,1.7c-0.6,0.5-1.2,0.9-2.1,1.2c-0.8,0.3-1.7,0.4-2.8,0.4c-1,0-2-0.1-2.8-0.4c-0.8-0.3-1.5-0.7-2-1.2
			c-0.5-0.5-1-1.1-1.2-1.7C14.2,24.1,14.1,23.4,14.1,22.6z M17,22.6c0,0.5,0.1,1,0.2,1.4c0.2,0.4,0.4,0.8,0.7,1.2
			c0.3,0.3,0.7,0.6,1.1,0.8c0.4,0.2,0.9,0.3,1.5,0.3c0.5,0,1-0.1,1.5-0.3c0.4-0.2,0.8-0.4,1.1-0.8c0.3-0.3,0.5-0.7,0.7-1.2
			c0.2-0.4,0.3-0.9,0.3-1.4c0-0.5-0.1-1-0.3-1.4c-0.2-0.4-0.4-0.8-0.7-1.2c-0.3-0.3-0.7-0.6-1.1-0.8c-0.4-0.2-0.9-0.3-1.5-0.3
			c-0.5,0-1,0.1-1.5,0.3c-0.4,0.2-0.8,0.5-1.1,0.8c-0.3,0.3-0.5,0.7-0.7,1.2C17.1,21.6,17,22.1,17,22.6z"/>
		<path class="st0" d="M31.2,13.3v2.2h-3v-2.2H31.2z M31.2,17.3v10.6h-3V17.3H31.2z"/>
		<path class="st0" d="M41.2,20.9c-0.3-0.7-0.6-1.2-1.1-1.5c-0.5-0.3-1-0.4-1.8-0.4c-0.5,0-1,0.1-1.4,0.3c-0.4,0.2-0.8,0.4-1,0.8
			c-0.3,0.3-0.5,0.7-0.6,1.1C35.1,21.5,35,22,35,22.4c0,0.5,0.1,1,0.2,1.4c0.1,0.5,0.4,0.9,0.6,1.2c0.3,0.4,0.6,0.7,1,0.9
			c0.4,0.2,0.9,0.3,1.4,0.3c0.4,0,0.7-0.1,1-0.2c0.3-0.1,0.6-0.3,0.8-0.5c0.2-0.2,0.4-0.5,0.6-0.8c0.2-0.3,0.3-0.6,0.4-1h3.1
			c-0.1,0.7-0.3,1.3-0.6,1.8c-0.3,0.5-0.7,1-1.3,1.3c-0.5,0.4-1.1,0.6-1.8,0.8s-1.5,0.3-2.3,0.3c-0.7,0-1.4-0.1-1.9-0.2
			c-0.6-0.2-1.1-0.4-1.6-0.6c-0.5-0.3-0.9-0.6-1.2-1c-0.3-0.4-0.6-0.8-0.8-1.2c-0.2-0.4-0.4-0.9-0.5-1.3s-0.2-0.9-0.2-1.4
			c0-0.7,0.1-1.4,0.4-2.1c0.3-0.6,0.7-1.2,1.3-1.7s1.2-0.8,2-1.1c0.8-0.3,1.6-0.4,2.6-0.4c0.8,0,1.6,0.1,2.3,0.3
			c0.7,0.2,1.2,0.5,1.7,0.8c0.5,0.3,0.9,0.7,1.2,1.2c0.3,0.5,0.5,1,0.7,1.5H41.2z"/>
		<path class="st0" d="M48,23.1c0,0.4,0.1,0.8,0.3,1.2c0.2,0.4,0.4,0.7,0.7,1c0.3,0.3,0.7,0.5,1.1,0.7c0.4,0.2,0.9,0.3,1.3,0.3
			c1.6,0,2.7-0.7,3.4-2h2.8c-0.2,0.6-0.4,1.1-0.8,1.6c-0.4,0.5-0.9,0.9-1.4,1.2c-0.5,0.3-1.2,0.6-1.8,0.7c-0.7,0.2-1.3,0.3-2.1,0.3
			c-1,0-1.9-0.2-2.7-0.5c-0.8-0.3-1.5-0.7-2.1-1.2c-0.6-0.5-1-1.1-1.3-1.8c-0.3-0.7-0.5-1.4-0.5-2.2c0-0.7,0.2-1.4,0.5-2
			c0.3-0.6,0.7-1.2,1.3-1.7c0.6-0.5,1.3-0.9,2.1-1.2c0.8-0.3,1.7-0.4,2.7-0.4c1,0,1.9,0.1,2.6,0.4c0.8,0.3,1.4,0.6,2,1.1
			c0.5,0.5,1,1,1.3,1.6c0.3,0.6,0.4,1.3,0.4,2v0.8H48z M54.7,21.5c0-0.4-0.2-0.7-0.3-1c-0.2-0.3-0.4-0.6-0.7-0.8
			c-0.3-0.2-0.6-0.4-1-0.5C52.3,19,51.8,19,51.3,19c-0.5,0-0.9,0.1-1.2,0.2c-0.4,0.1-0.7,0.3-1,0.5c-0.3,0.2-0.5,0.5-0.7,0.8
			c-0.2,0.3-0.3,0.6-0.3,1H54.7z"/>
		<g>
			<path class="st0" d="M35.4,32.2c-0.8,0.6-1.7,1.1-2.6,1.4C31.9,33.9,30.9,34,30,34c-1,0-1.9-0.2-2.8-0.5
				c-0.9-0.3-1.8-0.8-2.6-1.4v-1.1c0.9,0.5,1.8,0.9,2.7,1.1c0.9,0.2,1.8,0.4,2.7,0.4c0.9,0,1.8-0.1,2.7-0.4c0.9-0.2,1.8-0.6,2.7-1.1
				V32.2z"/>
		</g>
	</g>
</g>
<g id="Layer_2">
	<g>
		<polygon points="21.2,0.6 21.2,0.7 21.2,9.5 21.2,9.6 21.1,9.6 20,9.6 20,10.2 21.9,10.2 21.9,0 20,0 20,0.6 21.1,0.6 		"/>
		<polygon points="0.7,0.7 0.7,0.6 0.8,0.6 1.9,0.6 1.9,0 0,0 0,10.2 1.9,10.2 1.9,9.6 0.8,9.6 0.7,9.6 0.7,9.6 		"/>
		<path d="M7.5,6.8C7.7,6.7,7.8,6.6,8,6.5c1.3-0.8,2.5-1.7,2.5-3.5c0-1.8-1.3-3-3.2-3c-1,0-1.8,0.3-2.4,1C4.2,1.6,3.8,2.6,3.9,3.7
			l0,0.1h1.4l0-0.1c0-0.7,0.2-1.4,0.6-1.9c0.3-0.3,0.7-0.5,1.2-0.5C8.2,1.3,9,2,9,3c0,1.3-0.7,1.9-2.5,2.9C5,6.9,3.8,7.8,3.6,10.1
			l0,0.1h6.8V8.9H5.3C5.5,8,6.5,7.4,7.5,6.8z"/>
		<path d="M16.8,6.6V0h-1.4l-4.3,6.3l0,0.3v1.3h4.4v2.3h1.4V7.9h1.4V6.6H16.8z M12.4,6.6l3-4.4v4.4H12.4z"/>
		<path class="st1" d="M23.7,0v1.4h5.2C26.6,3.9,25.2,7,25,10.1l0,0.1h1.6l0-0.1c0.2-3.1,1.8-6.8,3.9-8.9l0,0V0H23.7z"/>
	</g>
</g>
</svg>
