<?xml version="1.0" encoding="utf-8"?>
<!-- Generator: Adobe Illustrator 19.1.0, SVG Export Plug-In . SVG Version: 6.00 Build 0)  -->
<svg version="1.1" id="Layer_1" xmlns="http://www.w3.org/2000/svg" xmlns:xlink="http://www.w3.org/1999/xlink" x="0px" y="0px"
	 viewBox="0 0 82.9 35.9" style="enable-background:new 0 0 82.9 35.9;" xml:space="preserve">
<style type="text/css">
	.st0{fill:#FFFFFF;}
</style>
<g>
	<g>
		<path class="st0" d="M82.2,22.1h-29v1.4h29V22.1z M1.8,7.2h0.8V0.7h1.8V0H0v0.7h1.8V7.2z M6.2,3.9h2.6v3.3h0.8V0H8.9v3.2H6.2V0
			H5.5v7.2h0.8V3.9z M14.6,6.5h-2.5V3.8h2.2V3.1h-2.2V0.7h2.4V0h-3.2v7.2h3.2V6.5z M10.3,21.3c0-0.4-0.1-0.7-0.1-1.1
			c0-0.3-0.1-0.6-0.1-0.9H9.4l-1.1,3H5.1v-9.5c0.3,0,0.5-0.1,0.8-0.2c0.3-0.1,0.5-0.2,0.8-0.3v-0.6H1.3v0.6c0.4,0.2,0.8,0.4,1.4,0.5
			v9.4c-0.2,0-0.4,0.1-0.6,0.2c-0.2,0.1-0.5,0.2-0.7,0.3v0.6h9.1c0-0.3,0-0.6,0-1C10.4,22.1,10.4,21.7,10.3,21.3z M22.7,22.3
			c-0.2,0.1-0.5,0.1-0.7,0.2c-0.2,0.1-0.4,0.2-0.6,0.3v0.6h5v-0.6c-0.2-0.1-0.4-0.2-0.6-0.3c-0.2-0.1-0.4-0.2-0.7-0.2v-9.5
			c0.2,0,0.4-0.1,0.7-0.2c0.2-0.1,0.4-0.2,0.6-0.3v-0.6h-4.1l-2.6,6.8l-0.5,1.6h0l-0.5-1.6l-2.5-6.8h-4.5v0.6
			c0.2,0.1,0.4,0.2,0.7,0.3c0.2,0.1,0.5,0.1,0.7,0.2v9.4c-0.2,0-0.5,0.1-0.7,0.3c-0.3,0.1-0.5,0.2-0.7,0.3v0.6h4.1v-0.6
			c-0.2-0.1-0.5-0.2-0.7-0.3c-0.3-0.1-0.5-0.2-0.7-0.2v-6.8l0-2.1h0.1l0.6,2l3.2,8.2h0.8l3.2-8.3l0.5-1.8h0.1l-0.1,2V22.3z M39,12.6
			c0.2-0.1,0.4-0.2,0.5-0.3v-0.6h-4.2v0.6c0.2,0.1,0.4,0.2,0.6,0.3c0.2,0.1,0.5,0.2,0.8,0.2l-2.1,6.5L34.3,21h0l-0.4-1.6l-2.3-6.6
			c0.3-0.1,0.5-0.1,0.7-0.2c0.2-0.1,0.4-0.2,0.6-0.3v-0.6h-5.5v0.6c0.2,0.1,0.4,0.2,0.6,0.3c0.2,0.1,0.4,0.2,0.7,0.2l4.3,10.8
			l1.6-0.2l3.8-10.6C38.6,12.8,38.8,12.7,39,12.6z M44.4,22.3V19c0.1,0,0.1,0,0.3,0c0.1,0,0.3,0,0.4,0c0.1,0,0.3,0,0.4,0h0.3
			c0.6,0,1.2-0.1,1.7-0.2c0.6-0.2,1.1-0.4,1.5-0.7c0.4-0.3,0.8-0.7,1-1.2c0.3-0.5,0.4-1,0.4-1.7c0-0.7-0.1-1.3-0.4-1.7
			c-0.3-0.5-0.6-0.8-1.1-1.1c-0.4-0.3-0.9-0.5-1.5-0.6c-0.6-0.1-1.1-0.2-1.7-0.2c-0.5,0-1,0-1.6,0.1c-0.6,0-1.1,0.1-1.5,0.1h-2.1
			v0.6c0.2,0.1,0.4,0.2,0.6,0.3c0.2,0.1,0.5,0.1,0.7,0.2v9.4c-0.2,0-0.5,0.1-0.7,0.2c-0.2,0.1-0.5,0.2-0.7,0.3v0.6h5.5v-0.6
			c-0.2-0.1-0.5-0.2-0.8-0.3C45,22.4,44.7,22.3,44.4,22.3z M44.4,12.8c0.1,0,0.2-0.1,0.4-0.1c0.1,0,0.3,0,0.5,0
			c0.7,0,1.3,0.2,1.7,0.6c0.4,0.4,0.6,1.1,0.6,2c0,0.5-0.1,0.9-0.2,1.2c-0.1,0.3-0.3,0.6-0.5,0.8c-0.2,0.2-0.5,0.4-0.7,0.5
			c-0.3,0.1-0.6,0.2-0.9,0.2c-0.1,0-0.3,0-0.5,0c-0.2,0-0.3,0-0.4-0.1V12.8z M3,28.8l-3,7h0.7l0.8-1.9h3.7l0.8,1.9h0.7l-2.9-7H3z
			 M1.7,33.3l1.6-3.8l1.6,3.8H1.7z M17.8,35L17.8,35L16,28.8h-0.8L13.4,35h0l-1.7-6.2H11l2,7h0.8l1.8-6.2h0l1.8,6.2h0.8l2-7h-0.7
			L17.8,35z M27.5,28.8l-3,7h0.7l0.8-1.9h3.7l0.8,1.9h0.7l-2.9-7H27.5z M26.1,33.3l1.6-3.8l1.6,3.8H26.1z M39.5,32.3
			c0.2-0.1,0.4-0.2,0.6-0.3c0.2-0.1,0.3-0.3,0.4-0.5c0.1-0.2,0.2-0.5,0.2-0.8c0-0.3,0-0.6-0.1-0.8c-0.1-0.2-0.2-0.4-0.4-0.5
			c-0.2-0.1-0.3-0.2-0.5-0.3c-0.2-0.1-0.4-0.1-0.6-0.2c-0.2,0-0.4-0.1-0.5-0.1c-0.2,0-0.3,0-0.4,0h-1.8v7H37v-3.3h1.2l2,3.3h0.7
			l-2-3.4C39.1,32.4,39.3,32.3,39.5,32.3z M37,31.9v-2.5h1.4c0.3,0,0.6,0,0.8,0.1c0.2,0.1,0.4,0.2,0.5,0.3c0.1,0.1,0.2,0.3,0.2,0.4
			c0,0.1,0.1,0.3,0.1,0.4c0,0.1,0,0.3-0.1,0.4c0,0.1-0.1,0.3-0.2,0.4c-0.1,0.1-0.3,0.2-0.5,0.3c-0.2,0.1-0.5,0.1-0.8,0.1H37z
			 M52.2,31.1c-0.1-0.3-0.2-0.5-0.4-0.8c-0.2-0.3-0.4-0.5-0.7-0.8c-0.3-0.2-0.6-0.4-1-0.6c-0.4-0.1-0.9-0.2-1.5-0.2h-2.2v7h2.2
			c0.6,0,1.1-0.1,1.5-0.2c0.4-0.1,0.8-0.3,1-0.6c0.3-0.2,0.5-0.5,0.7-0.8c0.2-0.3,0.3-0.5,0.4-0.8c0.1-0.3,0.1-0.5,0.1-0.7
			c0-0.2,0-0.4,0-0.4c0-0.1,0-0.2,0-0.4C52.3,31.6,52.3,31.4,52.2,31.1z M51.5,33.6c-0.2,0.4-0.4,0.7-0.7,0.9
			c-0.3,0.2-0.6,0.4-1,0.5c-0.4,0.1-0.8,0.2-1.3,0.2h-1.3v-5.8h1.3c0.5,0,0.9,0.1,1.3,0.2c0.4,0.1,0.7,0.3,1,0.5
			c0.3,0.2,0.5,0.5,0.7,0.9c0.2,0.4,0.3,0.8,0.3,1.3C51.7,32.8,51.6,33.2,51.5,33.6z M58.8,32.4h3.4v-0.6h-3.4v-2.5h3.6v-0.6h-4.3v7
			h4.4v-0.6h-3.8V32.4z M68.9,32.4h3.4v-0.6h-3.4v-2.5h3.6v-0.6h-4.3v7h4.4v-0.6h-3.8V32.4z M81.5,32.4c-0.3-0.1-0.6-0.2-0.9-0.3
			c-0.3-0.1-0.6-0.2-0.9-0.3c-0.3-0.1-0.5-0.3-0.7-0.4c-0.2-0.2-0.3-0.5-0.3-0.8c0-0.2,0-0.4,0.1-0.6c0.1-0.2,0.2-0.3,0.3-0.4
			c0.1-0.1,0.3-0.2,0.5-0.2c0.2-0.1,0.4-0.1,0.6-0.1c0.3,0,0.6,0.1,0.8,0.2c0.2,0.1,0.4,0.3,0.6,0.5l0.6-0.4
			c-0.2-0.3-0.5-0.5-0.8-0.7c-0.3-0.1-0.7-0.2-1.1-0.2c-0.3,0-0.6,0-0.8,0.1c-0.3,0.1-0.5,0.2-0.7,0.4c-0.2,0.2-0.4,0.4-0.5,0.6
			c-0.1,0.2-0.2,0.5-0.2,0.8c0,0.3,0.1,0.6,0.2,0.8c0.1,0.2,0.2,0.4,0.4,0.6c0.2,0.1,0.4,0.3,0.6,0.4c0.2,0.1,0.4,0.2,0.7,0.2
			c0.2,0.1,0.4,0.1,0.7,0.2c0.2,0.1,0.4,0.2,0.6,0.3c0.2,0.1,0.3,0.2,0.4,0.4c0.1,0.2,0.2,0.4,0.2,0.6c0,0.2,0,0.4-0.1,0.6
			c-0.1,0.2-0.2,0.3-0.3,0.4c-0.1,0.1-0.3,0.2-0.5,0.3c-0.2,0.1-0.4,0.1-0.6,0.1c-0.3,0-0.7-0.1-0.9-0.2c-0.3-0.1-0.5-0.4-0.7-0.7
			L78,34.9c0.3,0.4,0.6,0.7,1,0.8c0.4,0.2,0.8,0.2,1.3,0.2c0.3,0,0.6,0,0.8-0.1c0.3-0.1,0.5-0.2,0.7-0.4c0.2-0.2,0.4-0.4,0.5-0.6
			c0.1-0.2,0.2-0.5,0.2-0.8c0-0.4-0.1-0.8-0.3-1C82,32.7,81.8,32.5,81.5,32.4z M55.4,16.6h0.8c0.4,0,0.8,0,1.1-0.1
			c0.3-0.1,0.6-0.2,0.9-0.4c0.2-0.2,0.4-0.4,0.6-0.7c0.1-0.3,0.2-0.6,0.2-1c0-0.6-0.2-1-0.6-1.3c-0.4-0.3-1-0.5-1.7-0.5h-2.1
			L53.5,19H55L55.4,16.6z M55.9,13.8h0.6c0.1,0,0.3,0,0.4,0c0.1,0,0.2,0.1,0.3,0.1c0.1,0.1,0.2,0.1,0.2,0.2c0.1,0.1,0.1,0.2,0.1,0.3
			c0,0.3-0.1,0.5-0.3,0.7c-0.2,0.1-0.5,0.2-0.9,0.2h-0.6L55.9,13.8z M61.4,16.4H62l1.1,2.5h1.7l-1.3-2.7c0.5-0.1,0.9-0.3,1.1-0.7
			c0.3-0.3,0.4-0.7,0.4-1.3c0-0.5-0.2-0.9-0.6-1.2c-0.4-0.3-0.9-0.4-1.6-0.4h-2.2L59.5,19H61L61.4,16.4z M61.9,13.9h0.6
			c0.3,0,0.6,0,0.7,0.1c0.2,0.1,0.3,0.3,0.3,0.5c0,0.3-0.1,0.5-0.3,0.6c-0.2,0.1-0.5,0.2-0.9,0.2h-0.7L61.9,13.9z M68.3,12.6h-1.5
			L65.7,19h1.5L68.3,12.6z M71,14.4L71,14.4l0.9,4.5h1l2.4-4.5h0L74.6,19h1.5l1.1-6.3H75l-2.1,4.1h0l-0.7-4.1H70L68.9,19h1.4
			L71,14.4z M78.8,12.6L77.7,19H82l0.2-1.3h-2.9l0.2-1.4h2.5l0.2-1.2h-2.5l0.2-1.2h2.6l0.2-1.3H78.8z"/>
	</g>
</g>
</svg>
